#N canvas 577 98 1717 1219 12;
#X obj 765 99 dkezarrayM~ \$0-snd;
#X obj 464 335 dkezdistortM~;
#X obj 351 398 dkezvuM~;
#X obj 44 548 dkezspectdelayM~ 1024 40000 1 1;
#X obj 42 460 dkezspectgateM~ 1024;
#X obj 262 472 loadbang;
#X msg 262 496 1;
#X obj 461 463 dkezbitcrushM~;
#X obj 454 915 dkezvolM~;
#X obj 472 394 dkezringmodM~;
#X obj 474 753 dkezdelaylopM~ 5000;
#X obj 460 988 dkezpanM~;
#X obj 456 1054 throw~ \$0-improv_procL;
#X obj 633 1057 throw~ \$0-improv_procR;
#X obj 685 373 catch~ \$0-improv_procL;
#X obj 862 386 catch~ \$0-improv_procR;
#X obj 697 422 dkvancomp~ 512;
#X obj 860 423 dkvancomp~ 512;
#X obj 724 483 dkezvolS~;
#X msg 1028 426 factor_hi 10;
#X obj 1095 377 loadbang;
#X obj 717 564 throw~ dkimprovstation_voiceL;
#X obj 924 557 throw~ dkimprovstation_voiceR;
#X obj 801 769 dkezvuS~;
#X obj 645 652 loadbang;
#X msg 645 676 1;
#X obj 43 203 dkeznobuM~ \$0-snd 125 1;
#X obj 51 96 dkvmetrox_rcv dkimprovstation 4;
#X obj 64 70 hradio 15 1 0 9 empty empty empty 0 -8 0 10 -262144 -1
-1 4;
#X obj 72 21 loadbang;
#X msg 72 45 4;
#X obj 42 128 dkezctr 32;
#X obj 498 572 dkezpshiftM~;
#X obj 289 107 r dkimprovstation_1b;
#X obj 289 142 bng 45 250 50 0 empty empty sync 0 -7 0 15 -262144 -1
-1;
#X connect 1 0 9 0;
#X connect 3 0 1 0;
#X connect 4 0 3 0;
#X connect 5 0 6 0;
#X connect 6 0 4 3;
#X connect 6 0 3 2;
#X connect 7 0 32 0;
#X connect 8 0 11 0;
#X connect 9 0 7 0;
#X connect 10 0 8 0;
#X connect 11 0 12 0;
#X connect 11 1 13 0;
#X connect 14 0 16 0;
#X connect 15 0 17 0;
#X connect 16 0 18 0;
#X connect 17 0 18 1;
#X connect 18 0 21 0;
#X connect 18 0 23 0;
#X connect 18 1 22 0;
#X connect 18 1 23 1;
#X connect 19 0 16 1;
#X connect 19 0 17 1;
#X connect 20 0 19 0;
#X connect 24 0 25 0;
#X connect 25 0 10 2;
#X connect 25 0 9 3;
#X connect 26 0 4 0;
#X connect 26 0 2 0;
#X connect 27 0 31 0;
#X connect 28 0 27 0;
#X connect 29 0 30 0;
#X connect 30 0 28 0;
#X connect 31 0 26 0;
#X connect 32 0 10 0;
#X connect 33 0 34 0;
