#N canvas 726 151 1674 1168 12;
#X obj 765 99 dkezarrayM~ \$0-snd;
#X obj 492 461 dkezdistortM~;
#X obj 365 487 dkezvuM~;
#X obj 44 574 dkezspectdelayM~ 1024 40000 1 1;
#X obj 42 486 dkezspectgateM~ 1024;
#X obj 262 472 loadbang;
#X msg 262 496 1;
#X obj 659 470 dkezbitcrushM~;
#X obj 440 869 dkezvolM~;
#X obj 470 586 dkezringmodM~;
#X obj 464 660 dkezdelaylopM~ 5000;
#X obj 446 942 dkezpanM~;
#X obj 442 1008 throw~ \$0-improv_procL;
#X obj 619 1011 throw~ \$0-improv_procR;
#X obj 964 445 catch~ \$0-improv_procL;
#X obj 1141 458 catch~ \$0-improv_procR;
#X obj 976 494 dkvancomp~ 512;
#X obj 1139 495 dkvancomp~ 512;
#X obj 1003 555 dkezvolS~;
#X msg 1307 498 factor_hi 10;
#X obj 1374 449 loadbang;
#X obj 996 636 throw~ dkimprovstation_voiceL;
#X obj 1203 629 throw~ dkimprovstation_voiceR;
#X obj 1080 841 dkezvuS~;
#X obj 712 698 loadbang;
#X msg 712 722 1;
#X obj 51 96 dkvmetrox_rcv dkimprovstation 4;
#X obj 64 70 hradio 15 1 0 9 empty empty empty 0 -8 0 10 -262144 -1
-1 4;
#X obj 72 21 loadbang;
#X msg 72 45 4;
#X obj 42 128 dkezctr 32;
#X obj 657 534 dkezpshiftM~;
#X obj 392 10 r dkimprovstation_1b;
#X obj 385 54 bng 45 250 50 0 empty empty sync 0 -7 0 15 -262144 -1
-1;
#N canvas 232 391 317 197 \$0-improv_loop_arrays 0;
#X obj 38 29 array define \$0-loop0 882000;
#X obj 45 68 array define \$0-loop1 882000;
#X obj 38 114 array define \$0-loop2 882000;
#X obj 45 153 array define \$0-loop3 882000;
#X restore 1386 748 pd \$0-improv_loop_arrays;
#X obj 688 878 s~ \$0-improv_procSUM;
#X obj 1083 347 catch~ \$0-improv_loopL;
#X obj 1275 347 catch~ \$0-improv_loopR;
#X obj 322 140 dkfloatsync;
#X obj 340 108 tgl 15 0 empty empty on 17 7 0 12 -262144 -1 -1 0 1
;
#X obj 533 73 tgl 30 0 empty empty sync? 0 -7 0 15 -262144 -1 -1 0
1;
#X obj 450 95 bng 15 250 50 0 empty empty reset 17 7 0 12 -262144 -1
-1;
#X obj 439 140 dkbangsync;
#N canvas 720 218 1671 1084 \$0-improv_loopstation 0;
#X obj 86 228 dkezdistortM~;
#X obj 87 283 dkezfreqshiftM~;
#X obj 87 328 dkezpshiftM~;
#X obj 87 454 dkezdelaylopM~ 5000;
#X obj 105 769 dkezvolM~;
#X obj 105 832 dkezpanM~;
#X obj 472 258 dkezfreqshiftM~;
#X obj 472 303 dkezpshiftM~;
#X obj 472 450 dkezdelaylopM~ 5000;
#X obj 485 712 dkezvolM~;
#X obj 490 778 dkezpanM~;
#X obj 850 251 dkezfreqshiftM~;
#X obj 850 296 dkezpshiftM~;
#X obj 850 443 dkezdelaylopM~ 5000;
#X obj 838 727 dkezvolM~;
#X obj 838 790 dkezpanM~;
#X obj 1221 232 dkezfreqshiftM~;
#X obj 1221 277 dkezpshiftM~;
#X obj 1221 424 dkezdelaylopM~ 5000;
#X obj 1223 718 dkezvolM~;
#X obj 1221 773 dkezpanM~;
#X obj 255 460 loadbang;
#X msg 255 484 1;
#X obj 1033 433 loadbang;
#X msg 1033 457 1;
#X obj 471 203 dkezdistortM~;
#X obj 849 196 dkezdistortM~;
#X obj 1220 177 dkezdistortM~;
#X obj 257 34 r dkimprovstation_1b;
#X obj 363 63 r dkimprov_dur;
#X msg 363 87 syncdur \$1;
#X obj 583 38 r dkimprovstation_1b;
#X obj 745 38 r dkimprov_dur;
#X msg 745 62 syncdur \$1;
#X obj 962 31 r dkimprovstation_1b;
#X obj 1124 31 r dkimprov_dur;
#X msg 1124 55 syncdur \$1;
#X obj 1347 18 r dkimprovstation_1b;
#X obj 1497 20 r dkimprov_dur;
#X msg 1495 37 syncdur \$1;
#X obj 278 344 r dkimprovstation_1b;
#X obj 278 379 bng 45 250 50 0 empty empty sync 0 -7 0 15 -262144 -1
-1;
#X obj 10 26 r dkimprov_logidy;
#X obj 96 59 tgl 20 0 empty empty pedal_select 22 7 0 15 -262144 -1
-1 0 1;
#X obj 10 85 spigot 0;
#X obj 10 109 list split 1;
#X obj 10 133 sel 0 1 2;
#X obj 24 172 tgl 15 0 empty empty empty 17 7 0 10 -262144 -1 -1 0
1;
#X msg 24 192 rec \$1;
#X obj 111 610 dkezstutterM~ 5000;
#X obj 111 655 dkezvcfM~ 0 5 5 1;
#X obj 488 603 dkezstutterM~ 5000;
#X obj 484 649 dkezvcfM~ 0 5 5 1;
#X obj 841 604 dkezstutterM~ 5000;
#X obj 841 649 dkezvcfM~ 0 5 5 1;
#X obj 1214 584 dkezstutterM~ 5000;
#X obj 1214 629 dkezvcfM~ 0 5 5 1;
#X obj 440 1021 throw~ \$0-improv_loopR;
#X obj 248 1021 throw~ \$0-improv_loopL;
#X obj 97 87 r~ \$0-improv_procSUM;
#X obj 89 120 dkezlooperM~ \$0-loop0 1 125;
#X obj 479 62 r~ \$0-improv_procSUM;
#X obj 471 95 dkezlooperM~ \$0-loop1 1 125;
#X obj 858 55 r~ \$0-improv_procSUM;
#X obj 850 88 dkezlooperM~ \$0-loop2 1 125;
#X obj 1230 28 r~ \$0-improv_procSUM;
#X obj 1231 65 dkezlooperM~ \$0-loop3 1 125;
#X connect 0 0 1 0;
#X connect 1 0 2 0;
#X connect 2 0 3 0;
#X connect 3 0 49 0;
#X connect 4 0 5 0;
#X connect 5 0 58 0;
#X connect 5 1 57 0;
#X connect 6 0 7 0;
#X connect 7 0 8 0;
#X connect 8 0 51 0;
#X connect 9 0 10 0;
#X connect 10 0 58 0;
#X connect 10 1 57 0;
#X connect 11 0 12 0;
#X connect 12 0 13 0;
#X connect 13 0 53 0;
#X connect 14 0 15 0;
#X connect 15 0 58 0;
#X connect 15 1 57 0;
#X connect 16 0 17 0;
#X connect 17 0 18 0;
#X connect 18 0 55 0;
#X connect 19 0 20 0;
#X connect 20 0 58 0;
#X connect 20 1 57 0;
#X connect 21 0 22 0;
#X connect 22 0 3 2;
#X connect 22 0 8 2;
#X connect 23 0 24 0;
#X connect 24 0 13 2;
#X connect 24 0 18 2;
#X connect 25 0 6 0;
#X connect 26 0 11 0;
#X connect 27 0 16 0;
#X connect 28 0 60 3;
#X connect 29 0 30 0;
#X connect 30 0 60 4;
#X connect 31 0 62 3;
#X connect 32 0 33 0;
#X connect 33 0 62 4;
#X connect 34 0 64 3;
#X connect 35 0 36 0;
#X connect 36 0 64 4;
#X connect 37 0 66 3;
#X connect 38 0 39 0;
#X connect 39 0 66 4;
#X connect 40 0 41 0;
#X connect 42 0 44 0;
#X connect 43 0 44 1;
#X connect 44 0 45 0;
#X connect 45 0 46 0;
#X connect 46 0 47 0;
#X connect 47 0 48 0;
#X connect 47 0 60 1;
#X connect 49 0 50 0;
#X connect 50 0 4 0;
#X connect 51 0 52 0;
#X connect 52 0 9 0;
#X connect 53 0 54 0;
#X connect 54 0 14 0;
#X connect 55 0 56 0;
#X connect 56 0 19 0;
#X connect 59 0 60 0;
#X connect 60 0 0 0;
#X connect 61 0 62 0;
#X connect 62 0 25 0;
#X connect 63 0 64 0;
#X connect 64 0 26 0;
#X connect 65 0 66 0;
#X connect 66 0 27 0;
#X restore 1385 786 pd \$0-improv_loopstation;
#X obj 462 797 dkezvcfM~ 18000 5 5 1;
#X obj 43 203 dkeznobu64M~ \$0-snd 125 1;
#X obj 477 530 dkezfreqshiftM~;
#X connect 1 0 46 0;
#X connect 3 0 1 0;
#X connect 4 0 3 0;
#X connect 5 0 6 0;
#X connect 6 0 4 3;
#X connect 6 0 3 2;
#X connect 7 0 31 0;
#X connect 8 0 11 0;
#X connect 9 0 7 0;
#X connect 10 0 44 0;
#X connect 11 0 12 0;
#X connect 11 1 13 0;
#X connect 14 0 16 0;
#X connect 15 0 17 0;
#X connect 16 0 18 0;
#X connect 17 0 18 1;
#X connect 18 0 21 0;
#X connect 18 0 23 0;
#X connect 18 1 22 0;
#X connect 18 1 23 1;
#X connect 19 0 16 1;
#X connect 19 0 17 1;
#X connect 20 0 19 0;
#X connect 24 0 25 0;
#X connect 25 0 10 2;
#X connect 25 0 9 3;
#X connect 25 0 46 2;
#X connect 26 0 30 0;
#X connect 27 0 26 0;
#X connect 28 0 29 0;
#X connect 29 0 27 0;
#X connect 30 0 45 0;
#X connect 31 0 10 0;
#X connect 32 0 33 0;
#X connect 33 0 38 2;
#X connect 33 0 42 2;
#X connect 36 0 16 0;
#X connect 37 0 17 0;
#X connect 38 0 30 0;
#X connect 39 0 38 0;
#X connect 40 0 38 1;
#X connect 40 0 42 1;
#X connect 41 0 42 0;
#X connect 42 0 30 3;
#X connect 44 0 8 0;
#X connect 44 0 35 0;
#X connect 45 0 4 0;
#X connect 45 0 2 0;
#X connect 46 0 9 0;
