#N canvas 176 159 2509 1035 12;
#X obj 245 500 throw~ dkimprovstation_voiceL;
#X obj 477 495 throw~ dkimprovstation_voiceR;
#X obj 297 408 dkezvolS~;
#X obj 205 71 dkvmetrox_rcv dkimprovstation;
#X obj 228 40 hradio 15 1 0 8 empty empty empty 0 -8 0 10 -262144 -1
-1 4;
#X obj 444 19 r dkimprovstation_1b;
#X obj 437 63 bng 45 250 50 0 empty empty sync 0 -7 0 15 -262144 -1
-1;
#N canvas 549 255 1565 1044 \$0-improv_loopstation 0;
#X obj 149 5 r dkimprovstation_1b;
#X obj 44 208 dkezdistortM~;
#X obj 45 260 dkezfreqshiftM~;
#X obj 45 305 dkezpshiftM~;
#X obj 45 452 dkezdelaylopM~ 5000;
#X obj 45 587 dkezvolM~;
#X obj 45 650 dkezpanM~;
#X obj 240 899 throw~ \$0-improv_loopL;
#X obj 432 899 throw~ \$0-improv_loopR;
#X obj 378 222 dkezdistortM~;
#X obj 379 277 dkezfreqshiftM~;
#X obj 379 322 dkezpshiftM~;
#X obj 379 469 dkezdelaylopM~ 5000;
#X obj 379 604 dkezvolM~;
#X obj 379 667 dkezpanM~;
#X obj 705 212 dkezdistortM~;
#X obj 706 267 dkezfreqshiftM~;
#X obj 706 312 dkezpshiftM~;
#X obj 706 459 dkezdelaylopM~ 5000;
#X obj 706 594 dkezvolM~;
#X obj 706 657 dkezpanM~;
#X obj 1103 232 dkezdistortM~;
#X obj 1104 287 dkezfreqshiftM~;
#X obj 1104 332 dkezpshiftM~;
#X obj 1104 479 dkezdelaylopM~ 5000;
#X obj 1104 614 dkezvolM~;
#X obj 1104 677 dkezpanM~;
#X obj 45 29 r~ \$0-improv_procSUM;
#X obj 261 369 loadbang;
#X msg 261 393 1;
#X obj 883 377 loadbang;
#X msg 883 401 1;
#X obj 37 62 dkezlooperM~ \$0-loop0 1 125;
#X obj 311 5 r dkimprov_dur;
#X msg 311 29 syncdur \$1;
#X obj 477 29 r dkimprovstation_1b;
#X obj 373 53 r~ \$0-improv_procSUM;
#X obj 639 29 r dkimprov_dur;
#X msg 639 53 syncdur \$1;
#X obj 842 26 r dkimprovstation_1b;
#X obj 738 50 r~ \$0-improv_procSUM;
#X obj 1004 26 r dkimprov_dur;
#X msg 1004 50 syncdur \$1;
#X obj 1191 42 r dkimprovstation_1b;
#X obj 1087 66 r~ \$0-improv_procSUM;
#X obj 1353 42 r dkimprov_dur;
#X msg 1353 66 syncdur \$1;
#X obj 1079 99 dkezlooperM~ \$0-loop3 1 125;
#X obj 729 91 dkezlooperM~ \$0-loop2 1 125;
#X obj 365 86 dkezlooperM~ \$0-loop1 1 125;
#X obj 58 721 r dkimprovstation_1b;
#X obj 58 756 bng 45 250 50 0 empty empty sync 0 -7 0 15 -262144 -1
-1;
#X connect 0 0 32 3;
#X connect 1 0 2 0;
#X connect 2 0 3 0;
#X connect 3 0 4 0;
#X connect 4 0 5 0;
#X connect 5 0 6 0;
#X connect 6 0 7 0;
#X connect 6 1 8 0;
#X connect 9 0 10 0;
#X connect 10 0 11 0;
#X connect 11 0 12 0;
#X connect 12 0 13 0;
#X connect 13 0 14 0;
#X connect 14 0 7 0;
#X connect 14 1 8 0;
#X connect 15 0 16 0;
#X connect 16 0 17 0;
#X connect 17 0 18 0;
#X connect 18 0 19 0;
#X connect 19 0 20 0;
#X connect 20 0 7 0;
#X connect 20 1 8 0;
#X connect 21 0 22 0;
#X connect 22 0 23 0;
#X connect 23 0 24 0;
#X connect 24 0 25 0;
#X connect 25 0 26 0;
#X connect 26 0 7 0;
#X connect 26 1 8 0;
#X connect 27 0 32 0;
#X connect 28 0 29 0;
#X connect 29 0 4 2;
#X connect 29 0 12 2;
#X connect 30 0 31 0;
#X connect 31 0 18 2;
#X connect 31 0 24 2;
#X connect 32 0 1 0;
#X connect 33 0 34 0;
#X connect 34 0 32 4;
#X connect 35 0 49 3;
#X connect 36 0 49 0;
#X connect 37 0 38 0;
#X connect 38 0 49 4;
#X connect 39 0 48 3;
#X connect 40 0 48 0;
#X connect 41 0 42 0;
#X connect 42 0 48 4;
#X connect 43 0 47 3;
#X connect 44 0 47 0;
#X connect 45 0 46 0;
#X connect 46 0 47 4;
#X connect 47 0 21 0;
#X connect 48 0 15 0;
#X connect 49 0 9 0;
#X connect 50 0 51 0;
#X restore 508 444 pd \$0-improv_loopstation;
#N canvas 232 391 317 197 \$0-improv_loop_arrays 0;
#X obj 38 29 array define \$0-loop0 882000;
#X obj 45 68 array define \$0-loop1 882000;
#X obj 38 114 array define \$0-loop2 882000;
#X obj 45 153 array define \$0-loop3 882000;
#X restore 520 407 pd \$0-improv_loop_arrays;
#X obj 372 192 dkezdelaylopM~ 5000;
#X obj 624 71 loadbang;
#X msg 624 95 1;
#X obj 870 103 text define \$0-seq;
#X obj 706 134 dkbangsync 1;
#X obj 722 84 bng 15 250 50 0 empty empty empty 17 7 0 10 -262144 -1
-1;
#X obj 854 513 dkcospan~ 0;
#X msg 701 187 line 1 \, auto;
#X obj 952 252 r bd;
#X obj 701 271 text sequence \$0-seq -g;
#X obj 701 295 list split 1;
#X obj 718 377 text search \$0-seq 0 1;
#X msg 750 331 \$1 0;
#X obj 718 401 + 1;
#X msg 718 425 line \$1 \, auto;
#X msg 813 200 stop;
#X obj 854 489 dkvanssimp~ 10;
#X obj 926 347 dkrgate 100;
#X obj 952 277 t b f;
#X obj 1047 98 text define \$0-seq1;
#X obj 1110 235 dkbangsync 1;
#X obj 1126 185 bng 15 250 50 0 empty empty empty 17 7 0 10 -262144
-1 -1;
#X msg 1105 288 line 1 \, auto;
#X obj 1105 396 list split 1;
#X msg 1154 432 \$1 0;
#X obj 1122 502 + 1;
#X msg 1122 526 line \$1 \, auto;
#X msg 1217 301 stop;
#X obj 912 765 dkcospan~ 0;
#X obj 984 599 dkrgate 100;
#X obj 1010 529 t b f;
#X obj 1010 504 r hh;
#X obj 1105 372 text sequence \$0-seq1 -g;
#X obj 1122 478 text search \$0-seq1 0 1;
#X obj 912 741 dkhh1~;
#X obj 1313 242 dkbangsync 1;
#X obj 1329 192 bng 15 250 50 0 empty empty empty 17 7 0 10 -262144
-1 -1;
#X msg 1308 295 line 1 \, auto;
#X obj 1308 403 list split 1;
#X msg 1357 439 \$1 0;
#X obj 1325 509 + 1;
#X msg 1325 533 line \$1 \, auto;
#X msg 1420 308 stop;
#X obj 1067 829 dkcospan~ 0;
#X obj 1139 663 dkrgate 100;
#X obj 1165 593 t b f;
#X obj 1165 568 r bd2;
#X obj 1271 120 text define \$0-seq2;
#X obj 1308 379 text sequence \$0-seq2 -g;
#X obj 1325 485 text search \$0-seq2 0 1;
#X obj 1189 741 print;
#X obj 1067 805 dkclap1~;
#X obj 1466 126 text define \$0-seq3;
#X obj 1538 204 dkbangsync 1;
#X obj 1554 154 bng 15 250 50 0 empty empty empty 17 7 0 10 -262144
-1 -1;
#X msg 1533 257 line 1 \, auto;
#X obj 1533 365 list split 1;
#X msg 1582 401 \$1 0;
#X obj 1550 471 + 1;
#X msg 1550 495 line \$1 \, auto;
#X msg 1645 270 stop;
#X obj 1533 341 text sequence \$0-seq3 -g;
#X obj 1550 447 text search \$0-seq3 0 1;
#X obj 1258 839 dkcospan~ 0;
#X obj 1330 673 dkrgate 100;
#X obj 1356 603 t b f;
#X obj 1380 751 print;
#X obj 1356 578 r trig1;
#X obj 1258 815 dkbd1~;
#X msg 890 197 tempo 100 permin;
#X obj 1631 122 text define \$0-seq4;
#X obj 1744 221 dkbangsync 1;
#X obj 1760 171 bng 15 250 50 0 empty empty empty 17 7 0 10 -262144
-1 -1;
#X msg 1739 274 line 1 \, auto;
#X obj 1739 382 list split 1;
#X msg 1788 418 \$1 0;
#X obj 1756 488 + 1;
#X msg 1756 512 line \$1 \, auto;
#X msg 1851 287 stop;
#X obj 1739 358 text sequence \$0-seq4 -g;
#X obj 1756 464 text search \$0-seq4 0 1;
#X obj 1502 850 dkcospan~ 0;
#X obj 1574 684 dkrgate 100;
#X obj 1600 614 t b f;
#X obj 1624 762 print;
#X obj 1600 589 r trig2;
#X obj 1990 216 dkbangsync 1;
#X obj 2006 166 bng 15 250 50 0 empty empty empty 17 7 0 10 -262144
-1 -1;
#X msg 1985 269 line 1 \, auto;
#X obj 1985 377 list split 1;
#X msg 2034 413 \$1 0;
#X obj 2002 483 + 1;
#X msg 2002 507 line \$1 \, auto;
#X msg 2097 282 stop;
#X obj 1521 800 dkclap2~ 20;
#X obj 2026 339 text sequence \$0-seq5 -g;
#X obj 2002 459 text search \$0-seq5 0 1;
#X obj 1962 628 r trig3;
#X obj 1962 676 dknotetomidi;
#X obj 1962 700 mtof;
#X obj 1964 771 dktri~;
#X obj 1953 844 dkcospan~ 0;
#X obj 1964 795 *~;
#X obj 1901 128 text define \$0-seq5;
#X obj 1962 652 t a b;
#X obj 1891 768 print;
#X obj 2060 719 dkvanadsr~ 5 5 1 505 500;
#X connect 2 0 0 0;
#X connect 2 1 1 0;
#X connect 4 0 3 0;
#X connect 5 0 6 0;
#X connect 5 0 13 1;
#X connect 5 0 29 1;
#X connect 5 0 44 1;
#X connect 5 0 62 1;
#X connect 5 0 80 1;
#X connect 5 0 95 1;
#X connect 10 0 11 0;
#X connect 11 0 9 2;
#X connect 13 0 16 0;
#X connect 14 0 13 0;
#X connect 15 0 2 0;
#X connect 16 0 18 0;
#X connect 17 0 27 0;
#X connect 18 0 19 0;
#X connect 19 1 21 0;
#X connect 20 0 22 0;
#X connect 21 0 20 0;
#X connect 22 0 23 0;
#X connect 23 0 18 0;
#X connect 25 0 15 0;
#X connect 26 0 25 0;
#X connect 27 0 26 0;
#X connect 27 1 26 1;
#X connect 29 0 31 0;
#X connect 30 0 29 0;
#X connect 31 0 41 0;
#X connect 32 1 33 0;
#X connect 33 0 42 0;
#X connect 34 0 35 0;
#X connect 35 0 41 0;
#X connect 36 0 41 0;
#X connect 37 0 2 0;
#X connect 38 0 43 0;
#X connect 39 0 38 0;
#X connect 39 1 38 1;
#X connect 40 0 39 0;
#X connect 41 0 32 0;
#X connect 42 0 34 0;
#X connect 43 0 37 0;
#X connect 44 0 46 0;
#X connect 45 0 44 0;
#X connect 46 0 57 0;
#X connect 47 1 48 0;
#X connect 48 0 58 0;
#X connect 49 0 50 0;
#X connect 50 0 57 0;
#X connect 51 0 57 0;
#X connect 52 0 2 0;
#X connect 53 0 59 0;
#X connect 53 0 60 0;
#X connect 54 0 53 0;
#X connect 54 1 53 1;
#X connect 55 0 54 0;
#X connect 57 0 47 0;
#X connect 58 0 49 0;
#X connect 60 0 52 0;
#X connect 62 0 64 0;
#X connect 63 0 62 0;
#X connect 64 0 70 0;
#X connect 65 1 66 0;
#X connect 66 0 71 0;
#X connect 67 0 68 0;
#X connect 68 0 70 0;
#X connect 69 0 70 0;
#X connect 70 0 65 0;
#X connect 71 0 67 0;
#X connect 72 0 2 0;
#X connect 73 0 75 0;
#X connect 73 0 77 0;
#X connect 74 0 73 0;
#X connect 74 1 73 1;
#X connect 76 0 74 0;
#X connect 77 0 72 0;
#X connect 78 0 18 0;
#X connect 78 0 41 0;
#X connect 78 0 57 0;
#X connect 78 0 70 0;
#X connect 78 0 88 0;
#X connect 78 0 104 0;
#X connect 80 0 82 0;
#X connect 81 0 80 0;
#X connect 82 0 88 0;
#X connect 83 1 84 0;
#X connect 84 0 89 0;
#X connect 85 0 86 0;
#X connect 86 0 88 0;
#X connect 87 0 88 0;
#X connect 88 0 83 0;
#X connect 89 0 85 0;
#X connect 90 0 2 0;
#X connect 91 0 93 0;
#X connect 91 0 103 0;
#X connect 92 0 91 0;
#X connect 92 1 91 1;
#X connect 94 0 92 0;
#X connect 95 0 97 0;
#X connect 96 0 95 0;
#X connect 97 0 104 0;
#X connect 98 1 99 0;
#X connect 99 0 105 0;
#X connect 100 0 101 0;
#X connect 101 0 104 0;
#X connect 102 0 104 0;
#X connect 103 0 90 0;
#X connect 104 0 98 0;
#X connect 105 0 100 0;
#X connect 106 0 113 0;
#X connect 107 0 108 0;
#X connect 108 0 109 0;
#X connect 108 0 114 0;
#X connect 109 0 111 0;
#X connect 110 0 2 0;
#X connect 111 0 110 0;
#X connect 113 0 107 0;
#X connect 113 1 115 0;
#X connect 115 0 111 1;
