#N canvas 898 272 1541 819 12;
#X obj 103 35 dkezadc~ 1;
#X obj 510 35 dkezdistortM~;
#X obj 346 27 dkezvuM~;
#X obj 509 136 dkezpshiftM~;
#X obj 510 80 dkezfreqshiftM~;
#X obj 90 204 dkezspectdelayM~ 1024 40000 1 1;
#X obj 88 116 dkezspectgateM~ 1024;
#X obj 726 40 dkeztrgrnstrM~;
#X obj 497 337 dkezbitcrushM~;
#X obj 479 607 dkezvolM~;
#X obj 704 564 dkezvolM~;
#X obj 721 231 dkezbitcrushM~;
#X obj 447 131 loadbang;
#X msg 447 155 1;
#X obj 508 268 dkezringmodM~;
#X obj 500 406 dkezdelaylopM~ 5000;
#X obj 721 335 dkezdelaylopM~ 5000;
#X obj 485 680 dkezpanM~;
#X obj 715 681 dkezpanM~;
#N canvas 612 195 1152 847 \$0-improv_loopstation 0;
#X obj 99 76 dkloopplay~ \$0-loop0;
#X obj 203 42 r dkimprovstation_1b;
#X obj 97 166 dkezdistortM~;
#X obj 98 221 dkezfreqshiftM~;
#X obj 98 266 dkezpshiftM~;
#X obj 98 413 dkezdelaylopM~ 5000;
#X obj 98 548 dkezvolM~;
#X obj 98 611 dkezpanM~;
#X obj 243 789 throw~ \$0-improv_loopL;
#X obj 435 789 throw~ \$0-improv_loopR;
#X obj 466 45 r dkimprovstation_1b;
#X obj 360 169 dkezdistortM~;
#X obj 361 224 dkezfreqshiftM~;
#X obj 361 269 dkezpshiftM~;
#X obj 361 416 dkezdelaylopM~ 5000;
#X obj 361 551 dkezvolM~;
#X obj 361 614 dkezpanM~;
#X obj 743 48 r dkimprovstation_1b;
#X obj 637 172 dkezdistortM~;
#X obj 638 227 dkezfreqshiftM~;
#X obj 638 272 dkezpshiftM~;
#X obj 638 419 dkezdelaylopM~ 5000;
#X obj 638 554 dkezvolM~;
#X obj 638 617 dkezpanM~;
#X obj 1003 50 r dkimprovstation_1b;
#X obj 897 174 dkezdistortM~;
#X obj 898 229 dkezfreqshiftM~;
#X obj 898 274 dkezpshiftM~;
#X obj 898 421 dkezdelaylopM~ 5000;
#X obj 898 556 dkezvolM~;
#X obj 898 619 dkezpanM~;
#X obj 97 15 r~ \$0-improv_procSUM;
#X obj 360 18 r~ \$0-improv_procSUM;
#X obj 637 21 r~ \$0-improv_procSUM;
#X obj 897 23 r~ \$0-improv_procSUM;
#X obj 362 79 dkloopplay~ \$0-loop1;
#X obj 639 82 dkloopplay~ \$0-loop2;
#X obj 899 84 dkloopplay~ \$0-loop3;
#X connect 0 0 2 0;
#X connect 1 0 0 3;
#X connect 2 0 3 0;
#X connect 3 0 4 0;
#X connect 4 0 5 0;
#X connect 5 0 6 0;
#X connect 6 0 7 0;
#X connect 7 0 8 0;
#X connect 7 1 9 0;
#X connect 10 0 35 3;
#X connect 11 0 12 0;
#X connect 12 0 13 0;
#X connect 13 0 14 0;
#X connect 14 0 15 0;
#X connect 15 0 16 0;
#X connect 16 0 8 0;
#X connect 16 1 9 0;
#X connect 17 0 36 3;
#X connect 18 0 19 0;
#X connect 19 0 20 0;
#X connect 20 0 21 0;
#X connect 21 0 22 0;
#X connect 22 0 23 0;
#X connect 23 0 8 0;
#X connect 23 1 9 0;
#X connect 24 0 37 3;
#X connect 25 0 26 0;
#X connect 26 0 27 0;
#X connect 27 0 28 0;
#X connect 28 0 29 0;
#X connect 29 0 30 0;
#X connect 30 0 8 0;
#X connect 30 1 9 0;
#X connect 31 0 0 0;
#X connect 32 0 35 0;
#X connect 33 0 36 0;
#X connect 34 0 37 0;
#X connect 35 0 11 0;
#X connect 36 0 18 0;
#X connect 37 0 25 0;
#X restore 117 658 pd \$0-improv_loopstation;
#N canvas 232 391 317 197 \$0-improv_loop_arrays 0;
#X obj 38 29 array define \$0-loop0 88200;
#X obj 45 68 array define \$0-loop1 88200;
#X obj 38 114 array define \$0-loop2 88200;
#X obj 45 153 array define \$0-loop3 88200;
#X restore 129 621 pd \$0-improv_loop_arrays;
#X obj 579 759 throw~ \$0-improv_procL;
#X obj 760 749 throw~ \$0-improv_procR;
#X obj 923 288 catch~ \$0-improv_procL;
#X obj 1104 278 catch~ \$0-improv_procR;
#X obj 1033 336 catch~ \$0-improv_loopL;
#X obj 1225 336 catch~ \$0-improv_loopR;
#X obj 959 429 dkvancomp~ 512;
#X obj 1122 430 dkvancomp~ 512;
#X obj 986 490 dkezvolS~;
#X msg 1290 433 factor_hi 10;
#X obj 1357 384 loadbang;
#X obj 979 571 throw~ dkimprovstation_voiceL;
#X obj 1186 564 throw~ dkimprovstation_voiceR;
#X obj 730 641 s~ \$0-improv_procSUM;
#X obj 724 483 dkezstutterM~ 5000;
#X obj 500 541 dkezstutterM~ 5000;
#X obj 1047 624 dkezvuS~;
#X connect 0 0 2 0;
#X connect 0 0 6 0;
#X connect 1 0 4 0;
#X connect 3 0 14 0;
#X connect 4 0 3 0;
#X connect 5 0 1 0;
#X connect 6 0 5 0;
#X connect 7 0 11 0;
#X connect 8 0 15 0;
#X connect 9 0 17 0;
#X connect 9 0 34 0;
#X connect 10 0 18 0;
#X connect 10 0 34 0;
#X connect 11 0 16 0;
#X connect 12 0 13 0;
#X connect 13 0 6 3;
#X connect 13 0 5 2;
#X connect 14 0 8 0;
#X connect 14 0 7 0;
#X connect 15 0 36 0;
#X connect 16 0 35 0;
#X connect 17 0 21 0;
#X connect 17 1 22 0;
#X connect 18 0 21 0;
#X connect 18 1 22 0;
#X connect 23 0 27 0;
#X connect 24 0 28 0;
#X connect 25 0 27 0;
#X connect 26 0 28 0;
#X connect 27 0 29 0;
#X connect 28 0 29 1;
#X connect 29 0 32 0;
#X connect 29 0 37 0;
#X connect 29 1 33 0;
#X connect 29 1 37 1;
#X connect 30 0 27 1;
#X connect 30 0 28 1;
#X connect 31 0 30 0;
#X connect 35 0 10 0;
#X connect 36 0 9 0;
