#N struct 1149-tplate float x0 float y0 float id float c;
#N canvas 753 174 1990 1220 12;
#X obj 1135 120 tgl 15 0 empty empty empty 17 7 0 10 -262144 -1 -1
0 1;
#X obj 1134 153 metro 10;
#X obj 1270 123 loadbang;
#X obj 1131 563 unpack f f;
#X floatatom 1123 670 10 0 0 0 offset - #0-offset, f 10;
#X floatatom 1204 653 10 0 0 0 rate - #0-rate, f 10;
#X obj 1192 619 dkrange 0 1 -2 2;
#X obj 1348 684 unpack f f;
#X floatatom 1401 752 10 0 0 0 vol - #0-vol, f 10;
#X obj 1339 719 dkrange 0 1 -1 1;
#X floatatom 1334 782 10 0 0 0 pan - #0-pan, f 10;
#X obj 982 173 dkkeytonum 0 0 0;
#X obj 982 197 route 0;
#X obj 1017 262 s \$0-key;
#X msg 982 221 bang;
#X floatatom 835 860 5 0 44 0 snd - -, f 5;
#X obj 836 918 makefilename \$0-snd%d;
#X msg 822 1152 read -resize -maxsize 4e+10 \$1 \$2;
#X obj 835 883 t f f;
#X obj 822 1176 soundfiler;
#X obj 937 1034 list store;
#X obj 940 1063 list prepend set;
#X msg 940 1087;
#X obj 791 762 openpanel;
#X msg 790 721 symbol ~/sounds;
#X obj 791 786 t s b;
#X obj 886 802 loadbang;
#X obj 806 982 pack s s;
#X obj 850 1058 f;
#X msg 963 993 append \$1;
#X obj 806 1006 t l b;
#X obj 822 1200 print;
#X obj 1222 866 catch~ \$0-improv_procR;
#X obj 1020 865 catch~ \$0-improv_procL;
#X obj 1058 926 dkezvolS~;
#X obj 1084 1049 throw~ dkimprovstation_voiceL;
#X obj 1316 1044 throw~ dkimprovstation_voiceR;
#X obj 1297 935 catch~ \$0-improv_procSUM;
#X obj 401 856 dkcospan~ 0;
#X obj 463 743 *~;
#X obj 668 732 loadbang;
#X msg 666 770 1;
#X obj 672 820 pack 0 5;
#X obj 672 844 line~;
#X obj 157 49 catch~ \$0-improv_procM;
#X obj 1215 23 clone util/dksndtrig2-keyvoice 45 \$0;
#X obj 469 194 dkezdistortM~;
#X obj 367 40 dkezvuM~;
#X obj 37 193 dkezspectdelayM~ 1024 40000 1 1;
#X obj 120 96 dkezspectgateM~ 1024;
#X obj 361 223 loadbang;
#X msg 361 247 1;
#X obj 450 461 dkezbitcrushM~;
#X obj 458 529 dkezdelaylopM~ 5000;
#X obj 456 674 dkezstutterM~ 5000;
#X obj 454 327 dkezpshiftM~;
#X obj 711 772 r \$0-vol;
#X obj 484 781 r \$0-pan;
#X obj 268 891 throw~ \$0-improv_procL;
#X obj 451 911 throw~ \$0-improv_procR;
#X obj 457 253 dkezfreqshiftM~;
#X obj 1140 526 route 0 1 2 3, f 43;
#X obj 1514 583 unpack f f;
#X floatatom 1609 676 10 0 0 0 fb - #0-fb, f 10;
#X floatatom 1500 681 10 0 0 0 delT - #0-delT, f 10;
#X msg 1270 152 set 1 0.5 1 \, set 2 0.5 0.25;
#X msg 1139 194 0 1 2;
#X obj 1132 226 dkxypad 3;
#X obj 695 454 r \$0-delT;
#X msg 695 478 ms \$1;
#X obj 802 452 r \$0-fb;
#X msg 802 476 fb \$1;
#X obj 1505 617 dkrange 0 1 10 1000;
#X obj 1617 653 * 100;
#X msg 763 657 symbol /home/dxk/Documents/Pd/hot_sacred/sounds/tv/
;
#N canvas 75 375 1702 881 \$0-improv_loopstation 1;
#X obj 125 246 dkezdistortM~;
#X obj 126 301 dkezfreqshiftM~;
#X obj 126 346 dkezpshiftM~;
#X obj 126 493 dkezdelaylopM~ 5000;
#X obj 126 628 dkezvolM~;
#X obj 126 691 dkezpanM~;
#X obj 243 789 throw~ \$0-improv_loopL;
#X obj 435 789 throw~ \$0-improv_loopR;
#X obj 488 225 dkezdistortM~;
#X obj 489 280 dkezfreqshiftM~;
#X obj 489 325 dkezpshiftM~;
#X obj 489 472 dkezdelaylopM~ 5000;
#X obj 489 607 dkezvolM~;
#X obj 489 670 dkezpanM~;
#X obj 877 217 dkezdistortM~;
#X obj 878 272 dkezfreqshiftM~;
#X obj 878 317 dkezpshiftM~;
#X obj 878 464 dkezdelaylopM~ 5000;
#X obj 878 599 dkezvolM~;
#X obj 878 662 dkezpanM~;
#X obj 1272 188 dkezdistortM~;
#X obj 1273 243 dkezfreqshiftM~;
#X obj 1273 288 dkezpshiftM~;
#X obj 1273 435 dkezdelaylopM~ 5000;
#X obj 1273 570 dkezvolM~;
#X obj 1273 633 dkezpanM~;
#X obj 246 59 r dkimprovstation_1b;
#X obj 142 83 r~ \$0-improv_procSUM;
#X obj 134 116 dkezlooperM~ \$0-loop0 1 125;
#X obj 408 59 r dkimprov_dur;
#X msg 408 83 syncdur \$1;
#X obj 605 56 r dkimprovstation_1b;
#X obj 501 80 r~ \$0-improv_procSUM;
#X obj 775 45 r dkimprov_dur;
#X msg 775 69 syncdur \$1;
#X obj 992 38 r dkimprovstation_1b;
#X obj 888 62 r~ \$0-improv_procSUM;
#X obj 1154 38 r dkimprov_dur;
#X msg 1154 62 syncdur \$1;
#X obj 493 113 dkezlooperM~ \$0-loop1 1 125;
#X obj 880 95 dkezlooperM~ \$0-loop2 1 125;
#X obj 1377 16 r dkimprovstation_1b;
#X obj 1273 40 r~ \$0-improv_procSUM;
#X obj 1539 16 r dkimprov_dur;
#X msg 1539 40 syncdur \$1;
#X obj 1265 73 dkezlooperM~ \$0-loop3 1 125;
#X obj 359 404 loadbang;
#X msg 359 428 1;
#X obj 1097 414 loadbang;
#X msg 1097 438 1;
#X obj 293 502 r dkimprovstation_1b;
#X obj 293 537 bng 45 250 50 0 empty empty sync 0 -7 0 15 -262144 -1
-1;
#X obj 374 581 dkezvuM~;
#X obj 682 533 dkezvuM~;
#X obj 10 26 r dkimprov_logidy;
#X obj 58 54 tgl 20 0 empty empty pedal_select 22 7 0 15 -262144 -1
-1 0 1;
#X obj 10 85 spigot 0;
#X obj 10 109 list split 1;
#X obj 10 133 sel 0 1 2;
#X obj 24 172 tgl 15 0 empty empty empty 17 7 0 10 -262144 -1 -1 0
1;
#X msg 24 192 rec \$1;
#X connect 0 0 1 0;
#X connect 1 0 2 0;
#X connect 2 0 3 0;
#X connect 3 0 4 0;
#X connect 3 0 52 0;
#X connect 4 0 5 0;
#X connect 5 0 6 0;
#X connect 5 1 7 0;
#X connect 8 0 9 0;
#X connect 9 0 10 0;
#X connect 10 0 11 0;
#X connect 11 0 12 0;
#X connect 11 0 53 0;
#X connect 12 0 13 0;
#X connect 13 0 6 0;
#X connect 13 1 7 0;
#X connect 14 0 15 0;
#X connect 15 0 16 0;
#X connect 16 0 17 0;
#X connect 17 0 18 0;
#X connect 18 0 19 0;
#X connect 19 0 6 0;
#X connect 19 1 7 0;
#X connect 20 0 21 0;
#X connect 21 0 22 0;
#X connect 22 0 23 0;
#X connect 23 0 24 0;
#X connect 24 0 25 0;
#X connect 25 0 6 0;
#X connect 25 1 7 0;
#X connect 26 0 28 3;
#X connect 27 0 28 0;
#X connect 28 0 0 0;
#X connect 29 0 30 0;
#X connect 30 0 28 4;
#X connect 31 0 39 3;
#X connect 32 0 39 0;
#X connect 33 0 34 0;
#X connect 34 0 39 4;
#X connect 35 0 40 3;
#X connect 36 0 40 0;
#X connect 37 0 38 0;
#X connect 38 0 40 4;
#X connect 39 0 8 0;
#X connect 40 0 14 0;
#X connect 41 0 45 3;
#X connect 42 0 45 0;
#X connect 43 0 44 0;
#X connect 44 0 45 4;
#X connect 45 0 20 0;
#X connect 46 0 47 0;
#X connect 47 0 3 2;
#X connect 47 0 11 2;
#X connect 48 0 49 0;
#X connect 49 0 17 2;
#X connect 49 0 23 2;
#X connect 50 0 51 0;
#X connect 54 0 56 0;
#X connect 55 0 56 1;
#X connect 56 0 57 0;
#X connect 57 0 58 0;
#X connect 58 0 59 0;
#X connect 59 0 60 0;
#X connect 59 0 28 1;
#X restore 154 979 pd \$0-improv_loopstation;
#N canvas 232 391 317 197 \$0-improv_loop_arrays 1;
#X obj 45 68 array define \$0-loop1 882000;
#X obj 38 114 array define \$0-loop2 882000;
#X obj 45 153 array define \$0-loop3 882000;
#X obj 38 29 array define \$0-loop0 882000;
#X restore 166 942 pd \$0-improv_loop_arrays;
#X obj 1096 841 catch~ \$0-improv_loopL;
#X obj 1289 841 catch~ \$0-improv_loopR;
#X obj 231 762 s~ \$0-improv_procSUM;
#X connect 0 0 1 0;
#X connect 0 0 11 2;
#X connect 1 0 66 0;
#X connect 2 0 65 0;
#X connect 3 0 4 0;
#X connect 3 1 6 0;
#X connect 6 0 5 0;
#X connect 7 0 9 0;
#X connect 7 1 8 0;
#X connect 9 0 10 0;
#X connect 11 0 12 0;
#X connect 12 0 14 0;
#X connect 12 1 13 0;
#X connect 14 0 0 0;
#X connect 15 0 18 0;
#X connect 16 0 27 1;
#X connect 17 0 19 0;
#X connect 18 0 16 0;
#X connect 18 1 28 1;
#X connect 19 0 31 0;
#X connect 20 0 21 0;
#X connect 21 0 22 0;
#X connect 23 0 25 0;
#X connect 24 0 23 0;
#X connect 25 0 27 0;
#X connect 25 1 15 0;
#X connect 26 0 15 0;
#X connect 27 0 30 0;
#X connect 28 0 29 0;
#X connect 29 0 20 0;
#X connect 30 0 17 0;
#X connect 30 1 28 0;
#X connect 32 0 34 1;
#X connect 33 0 34 0;
#X connect 34 0 35 0;
#X connect 34 1 36 0;
#X connect 38 0 58 0;
#X connect 38 1 59 0;
#X connect 39 0 38 0;
#X connect 39 0 79 0;
#X connect 40 0 41 0;
#X connect 41 0 42 0;
#X connect 42 0 43 0;
#X connect 43 0 39 1;
#X connect 44 0 47 0;
#X connect 44 0 49 0;
#X connect 46 0 60 0;
#X connect 48 0 46 0;
#X connect 49 0 48 0;
#X connect 50 0 51 0;
#X connect 51 0 49 3;
#X connect 51 0 48 2;
#X connect 51 0 46 2;
#X connect 51 0 55 2;
#X connect 51 0 52 2;
#X connect 51 0 53 2;
#X connect 52 0 53 0;
#X connect 53 0 54 0;
#X connect 54 0 39 0;
#X connect 55 0 52 0;
#X connect 56 0 42 0;
#X connect 57 0 38 1;
#X connect 60 0 55 0;
#X connect 61 0 3 0;
#X connect 61 1 7 0;
#X connect 61 2 62 0;
#X connect 62 0 72 0;
#X connect 62 1 73 0;
#X connect 65 0 67 0;
#X connect 66 0 67 0;
#X connect 67 0 61 0;
#X connect 68 0 69 0;
#X connect 69 0 53 1;
#X connect 70 0 71 0;
#X connect 71 0 53 1;
#X connect 72 0 64 0;
#X connect 73 0 63 0;
#X connect 74 0 23 0;
#X connect 77 0 34 0;
#X connect 78 0 34 1;
