#N canvas 400 390 1206 875 12;
#X obj 16 50 dkezgrnchopM~ \$0-snd 125 1;
#X obj 336 134 dkezarrayM~ \$0-snd;
#X obj 464 286 dkezdistortM~;
#X obj 300 278 dkezvuM~;
#X obj 44 455 dkezspectdelayM~ 1024 40000 1 1;
#X obj 42 367 dkezspectgateM~ 1024;
#X obj 401 382 loadbang;
#X msg 401 406 1;
#X obj 456 414 dkezbitcrushM~;
#X obj 438 684 dkezvolM~;
#X obj 467 345 dkezringmodM~;
#X obj 459 483 dkezdelaylopM~ 5000;
#X obj 444 757 dkezpanM~;
#X obj 435 818 throw~ \$0-improv_procL;
#X obj 617 826 throw~ \$0-improv_procR;
#X obj 459 618 dkezstutterM~ 5000;
#X obj 661 281 catch~ \$0-improv_procL;
#X obj 842 271 catch~ \$0-improv_procR;
#X obj 697 422 dkvancomp~ 512;
#X obj 860 423 dkvancomp~ 512;
#X obj 724 483 dkezvolS~;
#X msg 1028 426 factor_hi 10;
#X obj 1095 377 loadbang;
#X obj 717 564 throw~ dkimprovstation_voiceL;
#X obj 924 557 throw~ dkimprovstation_voiceR;
#X obj 785 617 dkezvuS~;
#X obj 225 13 r dkimprovstation_1b;
#X msg 378 50 set dkimprovstation_rec1;
#X msg 377 23 set dkimprovstation_rec0;
#X obj 645 573 loadbang;
#X msg 645 597 1;
#N canvas 1347 132 1152 847 \$0-improv_loopstation 0;
#X obj 99 76 dkloopplay~ \$0-loop0;
#X obj 203 42 r dkimprovstation_1b;
#X obj 97 166 dkezdistortM~;
#X obj 98 221 dkezfreqshiftM~;
#X obj 98 266 dkezpshiftM~;
#X obj 98 413 dkezdelaylopM~ 5000;
#X obj 98 548 dkezvolM~;
#X obj 98 611 dkezpanM~;
#X obj 243 789 throw~ \$0-improv_loopL;
#X obj 435 789 throw~ \$0-improv_loopR;
#X obj 466 45 r dkimprovstation_1b;
#X obj 360 169 dkezdistortM~;
#X obj 361 224 dkezfreqshiftM~;
#X obj 361 269 dkezpshiftM~;
#X obj 361 416 dkezdelaylopM~ 5000;
#X obj 361 551 dkezvolM~;
#X obj 361 614 dkezpanM~;
#X obj 743 48 r dkimprovstation_1b;
#X obj 637 172 dkezdistortM~;
#X obj 638 227 dkezfreqshiftM~;
#X obj 638 272 dkezpshiftM~;
#X obj 638 419 dkezdelaylopM~ 5000;
#X obj 638 554 dkezvolM~;
#X obj 638 617 dkezpanM~;
#X obj 1003 50 r dkimprovstation_1b;
#X obj 897 174 dkezdistortM~;
#X obj 898 229 dkezfreqshiftM~;
#X obj 898 274 dkezpshiftM~;
#X obj 898 421 dkezdelaylopM~ 5000;
#X obj 898 556 dkezvolM~;
#X obj 898 619 dkezpanM~;
#X obj 97 15 r~ \$0-improv_procSUM;
#X obj 360 18 r~ \$0-improv_procSUM;
#X obj 637 21 r~ \$0-improv_procSUM;
#X obj 897 23 r~ \$0-improv_procSUM;
#X obj 362 79 dkloopplay~ \$0-loop1;
#X obj 639 82 dkloopplay~ \$0-loop2;
#X obj 899 84 dkloopplay~ \$0-loop3;
#X connect 0 0 2 0;
#X connect 1 0 0 3;
#X connect 2 0 3 0;
#X connect 3 0 4 0;
#X connect 4 0 5 0;
#X connect 5 0 6 0;
#X connect 6 0 7 0;
#X connect 7 0 8 0;
#X connect 7 1 9 0;
#X connect 10 0 35 3;
#X connect 11 0 12 0;
#X connect 12 0 13 0;
#X connect 13 0 14 0;
#X connect 14 0 15 0;
#X connect 15 0 16 0;
#X connect 16 0 8 0;
#X connect 16 1 9 0;
#X connect 17 0 36 3;
#X connect 18 0 19 0;
#X connect 19 0 20 0;
#X connect 20 0 21 0;
#X connect 21 0 22 0;
#X connect 22 0 23 0;
#X connect 23 0 8 0;
#X connect 23 1 9 0;
#X connect 24 0 37 3;
#X connect 25 0 26 0;
#X connect 26 0 27 0;
#X connect 27 0 28 0;
#X connect 28 0 29 0;
#X connect 29 0 30 0;
#X connect 30 0 8 0;
#X connect 30 1 9 0;
#X connect 31 0 0 0;
#X connect 32 0 35 0;
#X connect 33 0 36 0;
#X connect 34 0 37 0;
#X connect 35 0 11 0;
#X connect 36 0 18 0;
#X connect 37 0 25 0;
#X restore 947 660 pd \$0-improv_loopstation;
#N canvas 232 391 317 197 \$0-improv_loop_arrays 0;
#X obj 38 29 array define \$0-loop0 88200;
#X obj 45 68 array define \$0-loop1 88200;
#X obj 38 114 array define \$0-loop2 88200;
#X obj 45 153 array define \$0-loop3 88200;
#X restore 959 623 pd \$0-improv_loop_arrays;
#X obj 617 661 s~ 0-improv_procSUM;
#X connect 0 0 5 0;
#X connect 0 0 3 0;
#X connect 2 0 10 0;
#X connect 4 0 2 0;
#X connect 5 0 4 0;
#X connect 6 0 7 0;
#X connect 7 0 5 3;
#X connect 7 0 4 2;
#X connect 8 0 11 0;
#X connect 9 0 12 0;
#X connect 10 0 8 0;
#X connect 11 0 15 0;
#X connect 12 0 13 0;
#X connect 12 1 14 0;
#X connect 15 0 9 0;
#X connect 15 0 33 0;
#X connect 16 0 18 0;
#X connect 17 0 19 0;
#X connect 18 0 20 0;
#X connect 19 0 20 1;
#X connect 20 0 23 0;
#X connect 20 0 25 0;
#X connect 20 1 24 0;
#X connect 20 1 25 1;
#X connect 21 0 18 1;
#X connect 21 0 19 1;
#X connect 22 0 21 0;
#X connect 26 0 0 3;
#X connect 27 0 0 4;
#X connect 28 0 0 4;
#X connect 29 0 30 0;
#X connect 30 0 11 2;
#X connect 30 0 10 3;
