#N canvas 780 129 1652 1082 12;
#X obj 103 35 dkezadc~ 1;
#X obj 510 35 dkezdistortM~;
#X obj 346 27 dkezvuM~;
#X obj 509 136 dkezpshiftM~;
#X obj 510 80 dkezfreqshiftM~;
#X obj 90 204 dkezspectdelayM~ 1024 40000 1 1;
#X obj 88 116 dkezspectgateM~ 1024;
#X obj 726 40 dkeztrgrnstrM~;
#X obj 497 337 dkezbitcrushM~;
#X obj 721 231 dkezbitcrushM~;
#X obj 447 131 loadbang;
#X msg 447 155 1;
#X obj 510 265 dkezringmodM~;
#X obj 471 443 dkezpanM~;
#N canvas 492 268 1121 461 \$0-improv_loop_arrays 0;
#X obj 38 29 array define \$0-loop0-L 1.323e+06;
#X obj 45 68 array define \$0-loop1-L 1.323e+06;
#X obj 38 114 array define \$0-loop2-L 1.323e+06;
#X obj 45 153 array define \$0-loop3-L 1.323e+06;
#X obj 301 26 array define \$0-loop0-R 1.323e+06;
#X obj 308 65 array define \$0-loop1-R 1.323e+06;
#X obj 301 111 array define \$0-loop2-R 1.323e+06;
#X obj 308 150 array define \$0-loop3-R 1.323e+06;
#X obj 45 192 array define \$0-loop4-L 1.323e+06;
#X obj 52 231 array define \$0-loop5-L 1.323e+06;
#X obj 308 189 array define \$0-loop4-R 1.323e+06;
#X obj 315 228 array define \$0-loop5-R 1.323e+06;
#X obj 39 274 array define \$0-loop6-L 1.323e+06;
#X obj 46 313 array define \$0-loop7-L 1.323e+06;
#X obj 302 271 array define \$0-loop6-R 1.323e+06;
#X obj 309 310 array define \$0-loop7-R 1.323e+06;
#X restore 129 621 pd \$0-improv_loop_arrays;
#X obj 1033 336 catch~ \$0-improv_loopL;
#X obj 1225 336 catch~ \$0-improv_loopR;
#X obj 959 429 dkvancomp~ 512;
#X obj 1122 430 dkvancomp~ 512;
#X obj 986 490 dkezvolS~;
#X msg 1290 433 factor_hi 10;
#X obj 1357 384 loadbang;
#X obj 979 571 throw~ dkimprovstation_voiceL;
#X obj 1186 564 throw~ dkimprovstation_voiceR;
#X obj 501 396 dkezstutterM~ 5000;
#X obj 1047 624 dkezvuS~;
#X obj 915 560 loadbang;
#X msg 935 635 1;
#X obj 940 31 r dkimprovstation_1b;
#X obj 940 66 bng 45 250 50 0 empty empty sync 0 -7 0 15 -262144 -1
-1;
#X obj 731 327 dkezpshiftM~;
#X obj 1138 44 bng 20 250 50 0 empty empty LOOPSTATION 25 10 0 15 -262144
-1 -1;
#X obj 411 851 dkezvolS~;
#X obj 472 527 dkezdelaylopS~ 5000;
#X obj 445 689 dkezvcfS~ 18000 5 5 1;
#X obj 706 467 dkezpanM~;
#X obj 669 535 dkezdelaylopS~ 5000;
#X obj 701 676 dkezvcfS~ 18000 5 5 1;
#X obj 482 965 s~ \$0-improv_procL;
#X obj 663 955 s~ \$0-improv_procR;
#X obj 923 288 r~ \$0-improv_procL;
#X obj 1104 278 r~ \$0-improv_procR;
#X obj 802 874 dkezvolS~;
#X obj 822 962 s~ \$0-improv_procPREL;
#X obj 1003 952 s~ \$0-improv_procPRER;
#N canvas 143 104 1671 1084 \$0-improv_loopstation 0;
#X obj 322 488 loadbang;
#X msg 272 538 1;
#X obj 323 34 r dkimprovstation_1b;
#X obj 363 63 r dkimprov_dur;
#X msg 363 87 syncdur \$1;
#X obj 261 323 r dkimprovstation_1b;
#X obj 261 358 bng 45 250 50 0 empty empty sync 0 -7 0 15 -262144 -1
-1;
#X obj 10 26 r dkimprov_logidy;
#X obj 96 59 tgl 20 0 empty empty pedal_select 22 7 0 15 -262144 -1
-1 0 1;
#X obj 10 85 spigot 0;
#X obj 10 109 list split 1;
#X obj 10 133 sel 0 1 2;
#X obj 24 172 tgl 15 0 empty empty empty 17 7 0 10 -262144 -1 -1 0
1;
#X msg 24 192 rec \$1;
#X obj 440 1021 throw~ \$0-improv_loopR;
#X obj 248 1021 throw~ \$0-improv_loopL;
#X obj 86 228 dkezdistortS~;
#X obj 87 283 dkezfreqshiftS~;
#X obj 87 328 dkezpshiftS~;
#X obj 87 453 dkezpanS~;
#X obj 116 526 dkezdelaylopS~ 5000;
#X obj 150 699 dkezstutterS~ 5000;
#X obj 149 768 dkezvcfS~ 0 5 5 1;
#X obj 143 882 dkezvolS~;
#X obj 592 86 r dkimprovstation_1b;
#X obj 698 115 r dkimprov_dur;
#X msg 698 139 syncdur \$1;
#X obj 421 280 dkezdistortS~;
#X obj 422 335 dkezfreqshiftS~;
#X obj 422 380 dkezpshiftS~;
#X obj 451 578 dkezdelaylopS~ 5000;
#X obj 485 751 dkezstutterS~ 5000;
#X obj 484 820 dkezvcfS~ 0 5 5 1;
#X obj 478 934 dkezvolS~;
#X obj 624 19 r~ \$0-improv_procPREL;
#X obj 830 28 r~ \$0-improv_procPRER;
#X obj 1047 484 loadbang;
#X msg 997 534 1;
#X obj 1036 30 r dkimprovstation_1b;
#X obj 1088 59 r dkimprov_dur;
#X msg 1088 83 syncdur \$1;
#X obj 811 224 dkezdistortS~;
#X obj 812 279 dkezfreqshiftS~;
#X obj 812 324 dkezpshiftS~;
#X obj 841 522 dkezdelaylopS~ 5000;
#X obj 875 695 dkezstutterS~ 5000;
#X obj 874 764 dkezvcfS~ 0 5 5 1;
#X obj 882 843 dkezvolS~;
#X obj 1317 82 r dkimprovstation_1b;
#X obj 1423 111 r dkimprov_dur;
#X msg 1423 135 syncdur \$1;
#X obj 1146 276 dkezdistortS~;
#X obj 1147 331 dkezfreqshiftS~;
#X obj 1147 376 dkezpshiftS~;
#X obj 1176 574 dkezdelaylopS~ 5000;
#X obj 1210 747 dkezstutterS~ 5000;
#X obj 1209 816 dkezvcfS~ 0 5 5 1;
#X obj 1203 930 dkezvolS~;
#X obj 422 505 dkezpanS~;
#X obj 812 449 dkezpanS~;
#X obj 1147 501 dkezpanS~;
#X obj 424 172 dkezlooperS~ \$0-loop1 1 125;
#X obj 89 120 dkezlooperS~ \$0-loop0 1 125;
#X obj 814 116 dkezlooperS~ \$0-loop2 1 125;
#X obj 1149 168 dkezlooperS~ \$0-loop3 1 125;
#X connect 0 0 1 0;
#X connect 1 0 22 3;
#X connect 1 0 20 3;
#X connect 1 0 30 3;
#X connect 1 0 31 3;
#X connect 1 0 32 3;
#X connect 2 0 62 4;
#X connect 3 0 4 0;
#X connect 4 0 62 5;
#X connect 5 0 6 0;
#X connect 7 0 9 0;
#X connect 8 0 9 1;
#X connect 9 0 10 0;
#X connect 10 0 11 0;
#X connect 11 0 12 0;
#X connect 12 0 13 0;
#X connect 12 0 62 2;
#X connect 16 0 17 0;
#X connect 16 1 17 1;
#X connect 17 0 18 0;
#X connect 17 1 18 1;
#X connect 18 0 19 0;
#X connect 18 1 19 1;
#X connect 19 0 20 0;
#X connect 19 1 20 1;
#X connect 20 0 21 0;
#X connect 20 1 21 1;
#X connect 21 0 22 0;
#X connect 21 1 22 1;
#X connect 22 0 23 0;
#X connect 22 1 23 1;
#X connect 23 0 15 0;
#X connect 23 1 14 0;
#X connect 24 0 61 4;
#X connect 25 0 26 0;
#X connect 26 0 61 5;
#X connect 27 0 28 0;
#X connect 27 1 28 1;
#X connect 28 0 29 0;
#X connect 28 1 29 1;
#X connect 29 0 58 0;
#X connect 29 1 58 1;
#X connect 30 0 31 0;
#X connect 30 1 31 1;
#X connect 31 0 32 0;
#X connect 31 1 32 1;
#X connect 32 0 33 0;
#X connect 32 1 33 1;
#X connect 33 0 15 0;
#X connect 33 1 14 0;
#X connect 34 0 61 0;
#X connect 34 0 62 0;
#X connect 34 0 63 0;
#X connect 34 0 64 0;
#X connect 35 0 61 1;
#X connect 35 0 62 1;
#X connect 35 0 63 1;
#X connect 35 0 64 1;
#X connect 36 0 37 0;
#X connect 37 0 46 3;
#X connect 37 0 44 3;
#X connect 37 0 54 3;
#X connect 37 0 56 3;
#X connect 38 0 63 4;
#X connect 39 0 40 0;
#X connect 40 0 63 5;
#X connect 41 0 42 0;
#X connect 41 1 42 1;
#X connect 42 0 43 0;
#X connect 42 1 43 1;
#X connect 43 0 59 0;
#X connect 43 1 59 1;
#X connect 44 0 45 0;
#X connect 44 1 45 1;
#X connect 45 0 46 0;
#X connect 45 1 46 1;
#X connect 46 0 47 0;
#X connect 46 1 47 1;
#X connect 47 0 15 0;
#X connect 47 1 14 0;
#X connect 48 0 64 4;
#X connect 49 0 50 0;
#X connect 50 0 64 5;
#X connect 51 0 52 0;
#X connect 51 1 52 1;
#X connect 52 0 53 0;
#X connect 52 1 53 1;
#X connect 53 0 60 0;
#X connect 53 1 60 1;
#X connect 54 0 55 0;
#X connect 54 1 55 1;
#X connect 55 0 56 0;
#X connect 55 1 56 1;
#X connect 56 0 57 0;
#X connect 56 1 57 1;
#X connect 57 0 15 0;
#X connect 57 1 14 0;
#X connect 58 0 30 0;
#X connect 58 1 30 1;
#X connect 59 0 44 0;
#X connect 59 1 44 1;
#X connect 60 0 54 0;
#X connect 60 1 54 1;
#X connect 61 0 27 0;
#X connect 61 1 27 1;
#X connect 62 0 16 0;
#X connect 62 1 16 1;
#X connect 63 0 41 0;
#X connect 63 1 41 1;
#X connect 64 0 51 0;
#X connect 64 1 51 1;
#X restore 134 672 pd \$0-improv_loopstation;
#N canvas 143 104 1671 1084 \$0-improv_loopstation2 0;
#X obj 322 488 loadbang;
#X msg 272 538 1;
#X obj 323 34 r dkimprovstation_1b;
#X obj 363 63 r dkimprov_dur;
#X msg 363 87 syncdur \$1;
#X obj 261 323 r dkimprovstation_1b;
#X obj 261 358 bng 45 250 50 0 empty empty sync 0 -7 0 15 -262144 -1
-1;
#X obj 10 26 r dkimprov_logidy;
#X obj 96 59 tgl 20 0 empty empty pedal_select 22 7 0 15 -262144 -1
-1 0 1;
#X obj 10 85 spigot 0;
#X obj 10 109 list split 1;
#X obj 10 133 sel 0 1 2;
#X obj 24 172 tgl 15 0 empty empty empty 17 7 0 10 -262144 -1 -1 0
1;
#X msg 24 192 rec \$1;
#X obj 440 1021 throw~ \$0-improv_loopR;
#X obj 248 1021 throw~ \$0-improv_loopL;
#X obj 86 228 dkezdistortS~;
#X obj 87 283 dkezfreqshiftS~;
#X obj 87 328 dkezpshiftS~;
#X obj 87 453 dkezpanS~;
#X obj 116 526 dkezdelaylopS~ 5000;
#X obj 150 699 dkezstutterS~ 5000;
#X obj 149 768 dkezvcfS~ 0 5 5 1;
#X obj 143 882 dkezvolS~;
#X obj 592 86 r dkimprovstation_1b;
#X obj 698 115 r dkimprov_dur;
#X msg 698 139 syncdur \$1;
#X obj 421 280 dkezdistortS~;
#X obj 422 335 dkezfreqshiftS~;
#X obj 422 380 dkezpshiftS~;
#X obj 451 578 dkezdelaylopS~ 5000;
#X obj 485 751 dkezstutterS~ 5000;
#X obj 484 820 dkezvcfS~ 0 5 5 1;
#X obj 478 934 dkezvolS~;
#X obj 624 19 r~ \$0-improv_procPREL;
#X obj 830 28 r~ \$0-improv_procPRER;
#X obj 1047 484 loadbang;
#X msg 997 534 1;
#X obj 1036 30 r dkimprovstation_1b;
#X obj 1088 59 r dkimprov_dur;
#X msg 1088 83 syncdur \$1;
#X obj 811 224 dkezdistortS~;
#X obj 812 279 dkezfreqshiftS~;
#X obj 812 324 dkezpshiftS~;
#X obj 841 522 dkezdelaylopS~ 5000;
#X obj 875 695 dkezstutterS~ 5000;
#X obj 874 764 dkezvcfS~ 0 5 5 1;
#X obj 882 843 dkezvolS~;
#X obj 1317 82 r dkimprovstation_1b;
#X obj 1423 111 r dkimprov_dur;
#X msg 1423 135 syncdur \$1;
#X obj 1146 276 dkezdistortS~;
#X obj 1147 331 dkezfreqshiftS~;
#X obj 1147 376 dkezpshiftS~;
#X obj 1176 574 dkezdelaylopS~ 5000;
#X obj 1210 747 dkezstutterS~ 5000;
#X obj 1209 816 dkezvcfS~ 0 5 5 1;
#X obj 1203 930 dkezvolS~;
#X obj 422 505 dkezpanS~;
#X obj 812 449 dkezpanS~;
#X obj 1147 501 dkezpanS~;
#X obj 89 120 dkezlooperS~ \$0-loop4 1 125;
#X obj 424 172 dkezlooperS~ \$0-loop5 1 125;
#X obj 814 116 dkezlooperS~ \$0-loop6 1 125;
#X obj 1149 168 dkezlooperS~ \$0-loop7 1 125;
#X connect 0 0 1 0;
#X connect 1 0 22 3;
#X connect 1 0 20 3;
#X connect 1 0 30 3;
#X connect 1 0 31 3;
#X connect 1 0 32 3;
#X connect 2 0 61 4;
#X connect 3 0 4 0;
#X connect 4 0 61 5;
#X connect 5 0 6 0;
#X connect 7 0 9 0;
#X connect 8 0 9 1;
#X connect 9 0 10 0;
#X connect 10 0 11 0;
#X connect 11 0 12 0;
#X connect 12 0 13 0;
#X connect 12 0 61 2;
#X connect 16 0 17 0;
#X connect 16 1 17 1;
#X connect 17 0 18 0;
#X connect 17 1 18 1;
#X connect 18 0 19 0;
#X connect 18 1 19 1;
#X connect 19 0 20 0;
#X connect 19 1 20 1;
#X connect 20 0 21 0;
#X connect 20 1 21 1;
#X connect 21 0 22 0;
#X connect 21 1 22 1;
#X connect 22 0 23 0;
#X connect 22 1 23 1;
#X connect 23 0 15 0;
#X connect 23 1 14 0;
#X connect 24 0 62 4;
#X connect 25 0 26 0;
#X connect 26 0 62 5;
#X connect 27 0 28 0;
#X connect 27 1 28 1;
#X connect 28 0 29 0;
#X connect 28 1 29 1;
#X connect 29 0 58 0;
#X connect 29 1 58 1;
#X connect 30 0 31 0;
#X connect 30 1 31 1;
#X connect 31 0 32 0;
#X connect 31 1 32 1;
#X connect 32 0 33 0;
#X connect 32 1 33 1;
#X connect 33 0 15 0;
#X connect 33 1 14 0;
#X connect 34 0 61 0;
#X connect 34 0 62 0;
#X connect 34 0 63 0;
#X connect 34 0 64 0;
#X connect 35 0 61 1;
#X connect 35 0 62 1;
#X connect 35 0 63 1;
#X connect 35 0 64 1;
#X connect 36 0 37 0;
#X connect 37 0 46 3;
#X connect 37 0 44 3;
#X connect 37 0 54 3;
#X connect 37 0 56 3;
#X connect 38 0 63 4;
#X connect 39 0 40 0;
#X connect 40 0 63 5;
#X connect 41 0 42 0;
#X connect 41 1 42 1;
#X connect 42 0 43 0;
#X connect 42 1 43 1;
#X connect 43 0 59 0;
#X connect 43 1 59 1;
#X connect 44 0 45 0;
#X connect 44 1 45 1;
#X connect 45 0 46 0;
#X connect 45 1 46 1;
#X connect 46 0 47 0;
#X connect 46 1 47 1;
#X connect 47 0 15 0;
#X connect 47 1 14 0;
#X connect 48 0 64 4;
#X connect 49 0 50 0;
#X connect 50 0 64 5;
#X connect 51 0 52 0;
#X connect 51 1 52 1;
#X connect 52 0 53 0;
#X connect 52 1 53 1;
#X connect 53 0 60 0;
#X connect 53 1 60 1;
#X connect 54 0 55 0;
#X connect 54 1 55 1;
#X connect 55 0 56 0;
#X connect 55 1 56 1;
#X connect 56 0 57 0;
#X connect 56 1 57 1;
#X connect 57 0 15 0;
#X connect 57 1 14 0;
#X connect 58 0 30 0;
#X connect 58 1 30 1;
#X connect 59 0 44 0;
#X connect 59 1 44 1;
#X connect 60 0 54 0;
#X connect 60 1 54 1;
#X connect 61 0 16 0;
#X connect 61 1 16 1;
#X connect 62 0 27 0;
#X connect 62 1 27 1;
#X connect 63 0 41 0;
#X connect 63 1 41 1;
#X connect 64 0 51 0;
#X connect 64 1 51 1;
#X restore 132 699 pd \$0-improv_loopstation2;
#X connect 0 0 2 0;
#X connect 0 0 6 0;
#X connect 1 0 4 0;
#X connect 3 0 12 0;
#X connect 4 0 3 0;
#X connect 5 0 1 0;
#X connect 6 0 5 0;
#X connect 7 0 9 0;
#X connect 8 0 24 0;
#X connect 9 0 30 0;
#X connect 10 0 11 0;
#X connect 11 0 6 3;
#X connect 11 0 5 2;
#X connect 12 0 8 0;
#X connect 12 0 7 0;
#X connect 13 0 33 0;
#X connect 13 1 33 1;
#X connect 15 0 17 0;
#X connect 16 0 18 0;
#X connect 17 0 19 0;
#X connect 18 0 19 1;
#X connect 19 0 22 0;
#X connect 19 0 25 0;
#X connect 19 1 23 0;
#X connect 19 1 25 1;
#X connect 20 0 17 1;
#X connect 20 0 18 1;
#X connect 21 0 20 0;
#X connect 24 0 13 0;
#X connect 26 0 27 0;
#X connect 27 0 36 3;
#X connect 27 0 33 3;
#X connect 27 0 12 3;
#X connect 27 0 37 3;
#X connect 27 0 34 3;
#X connect 28 0 29 0;
#X connect 30 0 35 0;
#X connect 32 0 38 0;
#X connect 32 1 39 0;
#X connect 33 0 34 0;
#X connect 33 1 34 1;
#X connect 34 0 32 0;
#X connect 34 0 42 0;
#X connect 34 1 32 1;
#X connect 34 1 42 1;
#X connect 35 0 36 0;
#X connect 35 1 36 1;
#X connect 36 0 37 0;
#X connect 36 1 37 1;
#X connect 37 0 32 0;
#X connect 37 1 32 1;
#X connect 40 0 17 0;
#X connect 41 0 18 0;
#X connect 42 0 43 0;
#X connect 42 1 44 0;
