#N canvas 1067 314 1206 875 12;
#X obj 16 50 dkezgrnchopM~ \$0-snd 125 1;
#X obj 336 134 dkezarrayM~ \$0-snd;
#X obj 464 286 dkezdistortM~;
#X obj 300 278 dkezvuM~;
#X obj 44 455 dkezspectdelayM~ 1024 40000 1 1;
#X obj 42 367 dkezspectgateM~ 1024;
#X obj 401 382 loadbang;
#X msg 401 406 1;
#X obj 456 414 dkezbitcrushM~;
#X obj 438 684 dkezvolM~;
#X obj 467 345 dkezringmodM~;
#X obj 459 483 dkezdelaylopM~ 5000;
#X obj 444 757 dkezpanM~;
#X obj 435 818 throw~ \$0-improv_procL;
#X obj 617 826 throw~ \$0-improv_procR;
#X obj 459 618 dkezstutterM~ 5000;
#X obj 661 281 catch~ \$0-improv_procL;
#X obj 842 271 catch~ \$0-improv_procR;
#X obj 697 422 dkvancomp~ 512;
#X obj 860 423 dkvancomp~ 512;
#X obj 724 483 dkezvolS~;
#X msg 1028 426 factor_hi 10;
#X obj 1095 377 loadbang;
#X obj 717 564 throw~ dkimprovstation_voiceL;
#X obj 924 557 throw~ dkimprovstation_voiceR;
#X obj 785 617 dkezvuS~;
#X obj 225 13 r dkimprovstation_1b;
#X msg 378 50 set dkimprovstation_rec1;
#X msg 377 23 set dkimprovstation_rec0;
#X connect 0 0 5 0;
#X connect 0 0 3 0;
#X connect 2 0 10 0;
#X connect 4 0 2 0;
#X connect 5 0 4 0;
#X connect 6 0 7 0;
#X connect 7 0 5 3;
#X connect 7 0 4 2;
#X connect 8 0 11 0;
#X connect 9 0 12 0;
#X connect 10 0 8 0;
#X connect 11 0 15 0;
#X connect 12 0 13 0;
#X connect 12 1 14 0;
#X connect 15 0 9 0;
#X connect 16 0 18 0;
#X connect 17 0 19 0;
#X connect 18 0 20 0;
#X connect 19 0 20 1;
#X connect 20 0 23 0;
#X connect 20 0 25 0;
#X connect 20 1 24 0;
#X connect 20 1 25 1;
#X connect 21 0 18 1;
#X connect 21 0 19 1;
#X connect 22 0 21 0;
#X connect 26 0 0 3;
#X connect 27 0 0 4;
#X connect 28 0 0 4;
