#N canvas 444 354 1206 875 12;
#X obj 16 50 dkezgrnchopM~ \$0-snd 125 1;
#X obj 464 286 dkezdistortM~;
#X obj 300 278 dkezvuM~;
#X obj 44 455 dkezspectdelayM~ 1024 40000 1 1;
#X obj 42 367 dkezspectgateM~ 1024;
#X obj 401 382 loadbang;
#X msg 401 406 1;
#X obj 456 414 dkezbitcrushM~;
#X obj 438 684 dkezvolM~;
#X obj 467 345 dkezringmodM~;
#X obj 459 483 dkezdelaylopM~ 5000;
#X obj 444 757 dkezpanM~;
#X obj 435 818 throw~ \$0-improv_procL;
#X obj 617 826 throw~ \$0-improv_procR;
#X obj 459 618 dkezstutterM~ 5000;
#X obj 661 281 catch~ \$0-improv_procL;
#X obj 842 271 catch~ \$0-improv_procR;
#X obj 697 422 dkvancomp~ 512;
#X obj 860 423 dkvancomp~ 512;
#X obj 724 483 dkezvolS~;
#X msg 1028 426 factor_hi 10;
#X obj 1095 377 loadbang;
#X obj 717 564 throw~ dkimprovstation_voiceL;
#X obj 924 557 throw~ dkimprovstation_voiceR;
#X obj 785 617 dkezvuS~;
#X obj 225 13 r dkimprovstation_1b;
#X msg 378 50 set dkimprovstation_rec1;
#X msg 377 23 set dkimprovstation_rec0;
#X obj 645 573 loadbang;
#X msg 645 597 1;
#N canvas 599 192 1565 1044 \$0-improv_loopstation 0;
#X obj 149 5 r dkimprovstation_1b;
#X obj 44 208 dkezdistortM~;
#X obj 45 260 dkezfreqshiftM~;
#X obj 45 305 dkezpshiftM~;
#X obj 45 452 dkezdelaylopM~ 5000;
#X obj 45 587 dkezvolM~;
#X obj 45 650 dkezpanM~;
#X obj 240 899 throw~ \$0-improv_loopL;
#X obj 432 899 throw~ \$0-improv_loopR;
#X obj 378 222 dkezdistortM~;
#X obj 379 277 dkezfreqshiftM~;
#X obj 379 322 dkezpshiftM~;
#X obj 379 469 dkezdelaylopM~ 5000;
#X obj 379 604 dkezvolM~;
#X obj 379 667 dkezpanM~;
#X obj 705 212 dkezdistortM~;
#X obj 706 267 dkezfreqshiftM~;
#X obj 706 312 dkezpshiftM~;
#X obj 706 459 dkezdelaylopM~ 5000;
#X obj 706 594 dkezvolM~;
#X obj 706 657 dkezpanM~;
#X obj 1103 232 dkezdistortM~;
#X obj 1104 287 dkezfreqshiftM~;
#X obj 1104 332 dkezpshiftM~;
#X obj 1104 479 dkezdelaylopM~ 5000;
#X obj 1104 614 dkezvolM~;
#X obj 1104 677 dkezpanM~;
#X obj 45 29 r~ \$0-improv_procSUM;
#X obj 261 369 loadbang;
#X msg 261 393 1;
#X obj 883 377 loadbang;
#X msg 883 401 1;
#X obj 37 62 dkezlooperM~ \$0-loop0 1 125;
#X obj 311 5 r dkimprov_dur;
#X msg 311 29 syncdur \$1;
#X obj 477 29 r dkimprovstation_1b;
#X obj 373 53 r~ \$0-improv_procSUM;
#X obj 639 29 r dkimprov_dur;
#X msg 639 53 syncdur \$1;
#X obj 842 26 r dkimprovstation_1b;
#X obj 738 50 r~ \$0-improv_procSUM;
#X obj 1004 26 r dkimprov_dur;
#X msg 1004 50 syncdur \$1;
#X obj 1191 42 r dkimprovstation_1b;
#X obj 1087 66 r~ \$0-improv_procSUM;
#X obj 1353 42 r dkimprov_dur;
#X msg 1353 66 syncdur \$1;
#X obj 1079 99 dkezlooperM~ \$0-loop3 1 125;
#X obj 729 91 dkezlooperM~ \$0-loop2 1 125;
#X obj 365 86 dkezlooperM~ \$0-loop1 1 125;
#X obj 58 721 r dkimprovstation_1b;
#X obj 58 756 bng 45 250 50 0 empty empty sync 0 -7 0 15 -262144 -1
-1;
#X connect 0 0 32 3;
#X connect 1 0 2 0;
#X connect 2 0 3 0;
#X connect 3 0 4 0;
#X connect 4 0 5 0;
#X connect 5 0 6 0;
#X connect 6 0 7 0;
#X connect 6 1 8 0;
#X connect 9 0 10 0;
#X connect 10 0 11 0;
#X connect 11 0 12 0;
#X connect 12 0 13 0;
#X connect 13 0 14 0;
#X connect 14 0 7 0;
#X connect 14 1 8 0;
#X connect 15 0 16 0;
#X connect 16 0 17 0;
#X connect 17 0 18 0;
#X connect 18 0 19 0;
#X connect 19 0 20 0;
#X connect 20 0 7 0;
#X connect 20 1 8 0;
#X connect 21 0 22 0;
#X connect 22 0 23 0;
#X connect 23 0 24 0;
#X connect 24 0 25 0;
#X connect 25 0 26 0;
#X connect 26 0 7 0;
#X connect 26 1 8 0;
#X connect 27 0 32 0;
#X connect 28 0 29 0;
#X connect 29 0 4 2;
#X connect 29 0 12 2;
#X connect 30 0 31 0;
#X connect 31 0 18 2;
#X connect 31 0 24 2;
#X connect 32 0 1 0;
#X connect 33 0 34 0;
#X connect 34 0 32 4;
#X connect 35 0 49 3;
#X connect 36 0 49 0;
#X connect 37 0 38 0;
#X connect 38 0 49 4;
#X connect 39 0 48 3;
#X connect 40 0 48 0;
#X connect 41 0 42 0;
#X connect 42 0 48 4;
#X connect 43 0 47 3;
#X connect 44 0 47 0;
#X connect 45 0 46 0;
#X connect 46 0 47 4;
#X connect 47 0 21 0;
#X connect 48 0 15 0;
#X connect 49 0 9 0;
#X connect 50 0 51 0;
#X restore 947 660 pd \$0-improv_loopstation;
#N canvas 232 391 317 197 \$0-improv_loop_arrays 0;
#X obj 38 29 array define \$0-loop0 88200;
#X obj 45 68 array define \$0-loop1 88200;
#X obj 38 114 array define \$0-loop2 88200;
#X obj 45 153 array define \$0-loop3 88200;
#X restore 959 623 pd \$0-improv_loop_arrays;
#X obj 750 134 catch~ \$0-improv_loopL;
#X obj 942 134 catch~ \$0-improv_loopR;
#X obj 617 661 s~ \$0-improv_procSUM;
#X obj 412 89 dkezarrayM~ \$0-snd;
#X obj 641 27 r dkimprovstation_1b;
#X obj 641 62 bng 45 250 50 0 empty empty sync 0 -7 0 15 -262144 -1
-1;
#X connect 0 0 4 0;
#X connect 0 0 2 0;
#X connect 1 0 9 0;
#X connect 3 0 1 0;
#X connect 4 0 3 0;
#X connect 5 0 6 0;
#X connect 6 0 4 3;
#X connect 6 0 3 2;
#X connect 7 0 10 0;
#X connect 8 0 11 0;
#X connect 9 0 7 0;
#X connect 10 0 14 0;
#X connect 11 0 12 0;
#X connect 11 1 13 0;
#X connect 14 0 8 0;
#X connect 14 0 34 0;
#X connect 15 0 17 0;
#X connect 16 0 18 0;
#X connect 17 0 19 0;
#X connect 18 0 19 1;
#X connect 19 0 22 0;
#X connect 19 0 24 0;
#X connect 19 1 23 0;
#X connect 19 1 24 1;
#X connect 20 0 17 1;
#X connect 20 0 18 1;
#X connect 21 0 20 0;
#X connect 25 0 0 3;
#X connect 26 0 0 4;
#X connect 27 0 0 4;
#X connect 28 0 29 0;
#X connect 29 0 10 2;
#X connect 29 0 9 3;
#X connect 32 0 17 0;
#X connect 33 0 18 0;
#X connect 36 0 37 0;
