#N canvas 554 98 1882 1275 12;
#X obj 510 35 dkezdistortM~;
#X obj 408 31 dkezvuM~;
#X obj 509 136 dkezpshiftM~;
#X obj 510 80 dkezfreqshiftM~;
#X obj 83 431 dkezspectdelayM~ 1024 40000 1 1;
#X obj 86 348 dkezspectgateM~ 1024;
#X obj 726 40 dkeztrgrnstrM~;
#X obj 497 337 dkezbitcrushM~;
#X obj 479 607 dkezvolM~;
#X obj 704 564 dkezvolM~;
#X obj 721 231 dkezbitcrushM~;
#X obj 407 374 loadbang;
#X msg 407 398 1;
#X obj 508 268 dkezringmodM~;
#X obj 500 406 dkezdelaylopM~ 5000;
#X obj 722 336 dkezdelaylopM~ 5000;
#X obj 485 680 dkezpanM~;
#X obj 715 681 dkezpanM~;
#N canvas 351 264 1702 881 \$0-improv_loopstation 0;
#X obj 125 246 dkezdistortM~;
#X obj 126 301 dkezfreqshiftM~;
#X obj 126 346 dkezpshiftM~;
#X obj 126 493 dkezdelaylopM~ 5000;
#X obj 126 628 dkezvolM~;
#X obj 126 691 dkezpanM~;
#X obj 243 789 throw~ \$0-improv_loopL;
#X obj 435 789 throw~ \$0-improv_loopR;
#X obj 488 225 dkezdistortM~;
#X obj 489 280 dkezfreqshiftM~;
#X obj 489 325 dkezpshiftM~;
#X obj 489 472 dkezdelaylopM~ 5000;
#X obj 489 607 dkezvolM~;
#X obj 489 670 dkezpanM~;
#X obj 877 217 dkezdistortM~;
#X obj 878 272 dkezfreqshiftM~;
#X obj 878 317 dkezpshiftM~;
#X obj 878 464 dkezdelaylopM~ 5000;
#X obj 878 599 dkezvolM~;
#X obj 878 662 dkezpanM~;
#X obj 1272 188 dkezdistortM~;
#X obj 1273 243 dkezfreqshiftM~;
#X obj 1273 288 dkezpshiftM~;
#X obj 1273 435 dkezdelaylopM~ 5000;
#X obj 1273 570 dkezvolM~;
#X obj 1273 633 dkezpanM~;
#X obj 246 59 r dkimprovstation_1b;
#X obj 142 83 r~ \$0-improv_procSUM;
#X obj 134 116 dkezlooperM~ \$0-loop0 1 125;
#X obj 408 59 r dkimprov_dur;
#X msg 408 83 syncdur \$1;
#X obj 605 56 r dkimprovstation_1b;
#X obj 501 80 r~ \$0-improv_procSUM;
#X obj 775 45 r dkimprov_dur;
#X msg 775 69 syncdur \$1;
#X obj 992 38 r dkimprovstation_1b;
#X obj 888 62 r~ \$0-improv_procSUM;
#X obj 1154 38 r dkimprov_dur;
#X msg 1154 62 syncdur \$1;
#X obj 493 113 dkezlooperM~ \$0-loop1 1 125;
#X obj 880 95 dkezlooperM~ \$0-loop2 1 125;
#X obj 1377 16 r dkimprovstation_1b;
#X obj 1273 40 r~ \$0-improv_procSUM;
#X obj 1539 16 r dkimprov_dur;
#X msg 1539 40 syncdur \$1;
#X obj 1265 73 dkezlooperM~ \$0-loop3 1 125;
#X obj 359 404 loadbang;
#X msg 359 428 1;
#X obj 1097 414 loadbang;
#X msg 1097 438 1;
#X obj 293 502 r dkimprovstation_1b;
#X obj 293 537 bng 45 250 50 0 empty empty sync 0 -7 0 15 -262144 -1
-1;
#X connect 0 0 1 0;
#X connect 1 0 2 0;
#X connect 2 0 3 0;
#X connect 3 0 4 0;
#X connect 4 0 5 0;
#X connect 5 0 6 0;
#X connect 5 1 7 0;
#X connect 8 0 9 0;
#X connect 9 0 10 0;
#X connect 10 0 11 0;
#X connect 11 0 12 0;
#X connect 12 0 13 0;
#X connect 13 0 6 0;
#X connect 13 1 7 0;
#X connect 14 0 15 0;
#X connect 15 0 16 0;
#X connect 16 0 17 0;
#X connect 17 0 18 0;
#X connect 18 0 19 0;
#X connect 19 0 6 0;
#X connect 19 1 7 0;
#X connect 20 0 21 0;
#X connect 21 0 22 0;
#X connect 22 0 23 0;
#X connect 23 0 24 0;
#X connect 24 0 25 0;
#X connect 25 0 6 0;
#X connect 25 1 7 0;
#X connect 26 0 28 3;
#X connect 27 0 28 0;
#X connect 28 0 0 0;
#X connect 29 0 30 0;
#X connect 30 0 28 4;
#X connect 31 0 39 3;
#X connect 32 0 39 0;
#X connect 33 0 34 0;
#X connect 34 0 39 4;
#X connect 35 0 40 3;
#X connect 36 0 40 0;
#X connect 37 0 38 0;
#X connect 38 0 40 4;
#X connect 39 0 8 0;
#X connect 40 0 14 0;
#X connect 41 0 45 3;
#X connect 42 0 45 0;
#X connect 43 0 44 0;
#X connect 44 0 45 4;
#X connect 45 0 20 0;
#X connect 46 0 47 0;
#X connect 47 0 3 2;
#X connect 47 0 11 2;
#X connect 48 0 49 0;
#X connect 49 0 17 2;
#X connect 49 0 23 2;
#X connect 50 0 51 0;
#X restore 98 855 pd \$0-improv_loopstation;
#N canvas 232 391 317 197 \$0-improv_loop_arrays 0;
#X obj 38 29 array define \$0-loop0 88200;
#X obj 45 68 array define \$0-loop1 88200;
#X obj 38 114 array define \$0-loop2 88200;
#X obj 45 153 array define \$0-loop3 88200;
#X restore 110 818 pd \$0-improv_loop_arrays;
#X obj 579 759 throw~ \$0-improv_procL;
#X obj 760 749 throw~ \$0-improv_procR;
#X obj 923 288 catch~ \$0-improv_procL;
#X obj 1104 278 catch~ \$0-improv_procR;
#X obj 1033 336 catch~ \$0-improv_loopL;
#X obj 1225 336 catch~ \$0-improv_loopR;
#X obj 959 429 dkvancomp~ 512;
#X obj 1122 430 dkvancomp~ 512;
#X obj 986 490 dkezvolS~;
#X msg 1290 433 factor_hi 10;
#X obj 1357 384 loadbang;
#X obj 979 571 throw~ dkimprovstation_voiceL;
#X obj 1186 564 throw~ dkimprovstation_voiceR;
#X obj 730 641 s~ \$0-improv_procSUM;
#X obj 718 501 dkezstutterM~ 5000;
#X obj 1047 624 dkezvuS~;
#X obj 103 35 dkezadc~ 2;
#X obj 500 541 dkezstutterM~ 10000;
#X obj 945 37 r dkimprovstation_1b;
#X obj 945 72 bng 45 250 50 0 empty empty sync 0 -7 0 15 -262144 -1
-1;
#X obj 231 106 r dkimprov_logidy;
#X obj 279 134 tgl 20 0 empty empty pedal_select 22 7 0 15 -262144
-1 -1 0 1;
#X obj 231 165 spigot 0;
#X obj 231 189 list split 1;
#N canvas 945 254 1351 903 dkimprov_drum_synths 0;
#X obj 87 335 pdksynth/dkhh3~;
#X obj 234 114 f 0;
#X obj 240 65 dkdrumtrig~;
#X obj 234 184 route 0 1 2, f 20;
#X obj 220 392 +~;
#X obj 231 585 *~;
#X obj 270 557 line~;
#X msg 307 512 \$1 0.5;
#X obj 234 138 pack f f;
#X obj 201 31 inlet~;
#X obj 282 31 inlet;
#X text 330 33 on;
#X obj 387 28 inlet;
#X text 435 33 select;
#X obj 387 52 t f f;
#N canvas 826 486 930 423 dkimprov_drum_flowerpot 0;
#X obj 187 274 dkringerpreset;
#X obj 172 323 dkringerbank~ 4;
#X obj 215 186 loadbang;
#X msg 213 216 flowerpot;
#X obj 295 213 dkvanssimp~ 5;
#X obj 300 181 t b f;
#X obj 327 279 dkrange 0 1 600 1000;
#X obj 290 125 == 1;
#X msg 290 149 on \$1;
#X obj 290 78 inlet;
#X text 350 88 select;
#X obj 187 87 inlet;
#X text 237 88 speed;
#X obj 170 358 outlet~;
#X connect 0 1 1 2;
#X connect 0 2 1 3;
#X connect 0 3 1 4;
#X connect 1 0 13 0;
#X connect 2 0 3 0;
#X connect 3 0 0 0;
#X connect 4 0 1 0;
#X connect 5 0 4 0;
#X connect 5 1 6 0;
#X connect 6 0 1 1;
#X connect 7 0 8 0;
#X connect 8 0 1 5;
#X connect 9 0 7 0;
#X connect 11 0 5 0;
#X restore 311 325 pd dkimprov_drum_flowerpot;
#X obj 436 90 t f f;
#N canvas 588 664 930 423 dkimprov_drum_wineglass 0;
#X obj 187 274 dkringerpreset;
#X obj 215 186 loadbang;
#X obj 295 213 dkvanssimp~ 5;
#X obj 300 181 t b f;
#X obj 327 279 dkrange 0 1 600 1000;
#X msg 290 149 on \$1;
#X obj 290 78 inlet;
#X text 350 88 select;
#X obj 187 87 inlet;
#X text 237 88 speed;
#X obj 170 358 outlet~;
#X msg 213 216 wineglass;
#X obj 172 323 dkringerbank~ 5;
#X obj 290 125 == 2;
#X connect 0 1 12 2;
#X connect 0 2 12 3;
#X connect 0 3 12 4;
#X connect 1 0 11 0;
#X connect 2 0 12 0;
#X connect 3 0 2 0;
#X connect 3 1 4 0;
#X connect 4 0 12 1;
#X connect 5 0 12 5;
#X connect 6 0 13 0;
#X connect 8 0 3 0;
#X connect 11 0 0 0;
#X connect 12 0 10 0;
#X connect 13 0 5 0;
#X restore 526 327 pd dkimprov_drum_wineglass;
#X obj 220 416 +~;
#X obj 231 609 outlet~;
#X obj 208 264 dkrange 0 1 800 1200;
#X msg 208 288 freq \$1;
#X obj 134 225 t b f;
#X connect 0 0 4 0;
#X connect 1 0 8 0;
#X connect 2 0 1 0;
#X connect 2 1 7 0;
#X connect 2 2 8 1;
#X connect 3 0 22 0;
#X connect 3 1 15 0;
#X connect 3 2 17 0;
#X connect 4 0 18 0;
#X connect 5 0 19 0;
#X connect 6 0 5 1;
#X connect 7 0 6 0;
#X connect 8 0 3 0;
#X connect 9 0 2 0;
#X connect 10 0 2 1;
#X connect 12 0 14 0;
#X connect 14 0 1 1;
#X connect 14 1 16 0;
#X connect 15 0 4 1;
#X connect 16 0 15 1;
#X connect 16 1 17 1;
#X connect 17 0 18 1;
#X connect 18 0 5 0;
#X connect 20 0 21 0;
#X connect 21 0 0 1;
#X connect 22 0 0 0;
#X connect 22 1 20 0;
#X restore 104 298 pd dkimprov_drum_synths;
#X obj 196 254 tgl 15 0 empty empty on 17 7 0 15 -262144 -1 -1 0 1
;
#X obj 276 229 loadbang;
#X msg 276 253 0;
#X connect 0 0 3 0;
#X connect 2 0 13 0;
#X connect 3 0 2 0;
#X connect 4 0 0 0;
#X connect 5 0 4 0;
#X connect 6 0 10 0;
#X connect 7 0 14 0;
#X connect 8 0 16 0;
#X connect 8 0 33 0;
#X connect 9 0 17 0;
#X connect 9 0 33 0;
#X connect 10 0 15 0;
#X connect 11 0 12 0;
#X connect 12 0 5 3;
#X connect 12 0 4 2;
#X connect 13 0 7 0;
#X connect 13 0 6 0;
#X connect 14 0 37 0;
#X connect 15 0 34 0;
#X connect 16 0 20 0;
#X connect 16 1 21 0;
#X connect 17 0 20 0;
#X connect 17 1 21 0;
#X connect 22 0 26 0;
#X connect 23 0 27 0;
#X connect 24 0 26 0;
#X connect 25 0 27 0;
#X connect 26 0 28 0;
#X connect 27 0 28 1;
#X connect 28 0 31 0;
#X connect 28 0 35 0;
#X connect 28 1 32 0;
#X connect 28 1 35 1;
#X connect 29 0 26 1;
#X connect 29 0 27 1;
#X connect 30 0 29 0;
#X connect 34 0 9 0;
#X connect 36 0 1 0;
#X connect 36 0 44 0;
#X connect 37 0 8 0;
#X connect 38 0 39 0;
#X connect 40 0 42 0;
#X connect 41 0 42 1;
#X connect 42 0 43 0;
#X connect 43 0 44 2;
#X connect 44 0 5 0;
#X connect 45 0 44 1;
#X connect 46 0 47 0;
#X connect 47 0 44 2;
