#N canvas 1075 576 1045 672 12;
#X obj 245 500 throw~ dkimprovstation_voiceL;
#X obj 477 495 throw~ dkimprovstation_voiceR;
#X obj 297 408 dkezvolS~;
#X obj 205 71 dkvmetrox_rcv dkimprovstation;
#X obj 228 40 hradio 15 1 0 8 empty empty empty 0 -8 0 10 -262144 -1
-1 4;
#X obj 444 19 r dkimprovstation_1b;
#X obj 437 63 bng 45 250 50 0 empty empty sync 0 -7 0 15 -262144 -1
-1;
#N canvas 549 255 1565 1044 \$0-improv_loopstation 0;
#X obj 149 5 r dkimprovstation_1b;
#X obj 44 208 dkezdistortM~;
#X obj 45 260 dkezfreqshiftM~;
#X obj 45 305 dkezpshiftM~;
#X obj 45 452 dkezdelaylopM~ 5000;
#X obj 45 587 dkezvolM~;
#X obj 45 650 dkezpanM~;
#X obj 240 899 throw~ \$0-improv_loopL;
#X obj 432 899 throw~ \$0-improv_loopR;
#X obj 378 222 dkezdistortM~;
#X obj 379 277 dkezfreqshiftM~;
#X obj 379 322 dkezpshiftM~;
#X obj 379 469 dkezdelaylopM~ 5000;
#X obj 379 604 dkezvolM~;
#X obj 379 667 dkezpanM~;
#X obj 705 212 dkezdistortM~;
#X obj 706 267 dkezfreqshiftM~;
#X obj 706 312 dkezpshiftM~;
#X obj 706 459 dkezdelaylopM~ 5000;
#X obj 706 594 dkezvolM~;
#X obj 706 657 dkezpanM~;
#X obj 1103 232 dkezdistortM~;
#X obj 1104 287 dkezfreqshiftM~;
#X obj 1104 332 dkezpshiftM~;
#X obj 1104 479 dkezdelaylopM~ 5000;
#X obj 1104 614 dkezvolM~;
#X obj 1104 677 dkezpanM~;
#X obj 45 29 r~ \$0-improv_procSUM;
#X obj 261 369 loadbang;
#X msg 261 393 1;
#X obj 883 377 loadbang;
#X msg 883 401 1;
#X obj 37 62 dkezlooperM~ \$0-loop0 1 125;
#X obj 311 5 r dkimprov_dur;
#X msg 311 29 syncdur \$1;
#X obj 477 29 r dkimprovstation_1b;
#X obj 373 53 r~ \$0-improv_procSUM;
#X obj 639 29 r dkimprov_dur;
#X msg 639 53 syncdur \$1;
#X obj 842 26 r dkimprovstation_1b;
#X obj 738 50 r~ \$0-improv_procSUM;
#X obj 1004 26 r dkimprov_dur;
#X msg 1004 50 syncdur \$1;
#X obj 1191 42 r dkimprovstation_1b;
#X obj 1087 66 r~ \$0-improv_procSUM;
#X obj 1353 42 r dkimprov_dur;
#X msg 1353 66 syncdur \$1;
#X obj 1079 99 dkezlooperM~ \$0-loop3 1 125;
#X obj 729 91 dkezlooperM~ \$0-loop2 1 125;
#X obj 365 86 dkezlooperM~ \$0-loop1 1 125;
#X obj 58 721 r dkimprovstation_1b;
#X obj 58 756 bng 45 250 50 0 empty empty sync 0 -7 0 15 -262144 -1
-1;
#X connect 0 0 32 3;
#X connect 1 0 2 0;
#X connect 2 0 3 0;
#X connect 3 0 4 0;
#X connect 4 0 5 0;
#X connect 5 0 6 0;
#X connect 6 0 7 0;
#X connect 6 1 8 0;
#X connect 9 0 10 0;
#X connect 10 0 11 0;
#X connect 11 0 12 0;
#X connect 12 0 13 0;
#X connect 13 0 14 0;
#X connect 14 0 7 0;
#X connect 14 1 8 0;
#X connect 15 0 16 0;
#X connect 16 0 17 0;
#X connect 17 0 18 0;
#X connect 18 0 19 0;
#X connect 19 0 20 0;
#X connect 20 0 7 0;
#X connect 20 1 8 0;
#X connect 21 0 22 0;
#X connect 22 0 23 0;
#X connect 23 0 24 0;
#X connect 24 0 25 0;
#X connect 25 0 26 0;
#X connect 26 0 7 0;
#X connect 26 1 8 0;
#X connect 27 0 32 0;
#X connect 28 0 29 0;
#X connect 29 0 4 2;
#X connect 29 0 12 2;
#X connect 30 0 31 0;
#X connect 31 0 18 2;
#X connect 31 0 24 2;
#X connect 32 0 1 0;
#X connect 33 0 34 0;
#X connect 34 0 32 4;
#X connect 35 0 49 3;
#X connect 36 0 49 0;
#X connect 37 0 38 0;
#X connect 38 0 49 4;
#X connect 39 0 48 3;
#X connect 40 0 48 0;
#X connect 41 0 42 0;
#X connect 42 0 48 4;
#X connect 43 0 47 3;
#X connect 44 0 47 0;
#X connect 45 0 46 0;
#X connect 46 0 47 4;
#X connect 47 0 21 0;
#X connect 48 0 15 0;
#X connect 49 0 9 0;
#X connect 50 0 51 0;
#X restore 508 444 pd \$0-improv_loopstation;
#N canvas 232 391 317 197 \$0-improv_loop_arrays 0;
#X obj 38 29 array define \$0-loop0 882000;
#X obj 45 68 array define \$0-loop1 882000;
#X obj 38 114 array define \$0-loop2 882000;
#X obj 45 153 array define \$0-loop3 882000;
#X restore 520 407 pd \$0-improv_loop_arrays;
#X connect 2 0 0 0;
#X connect 2 1 1 0;
#X connect 4 0 3 0;
#X connect 5 0 6 0;
