#N canvas 677 164 1882 1275 12;
#X obj 510 35 dkezdistortM~;
#X obj 408 31 dkezvuM~;
#X obj 509 136 dkezpshiftM~;
#X obj 510 80 dkezfreqshiftM~;
#X obj 83 431 dkezspectdelayM~ 1024 40000 1 1;
#X obj 86 348 dkezspectgateM~ 1024;
#X obj 726 40 dkeztrgrnstrM~;
#X obj 497 337 dkezbitcrushM~;
#X obj 447 829 dkezvolM~;
#X obj 672 786 dkezvolM~;
#X obj 721 231 dkezbitcrushM~;
#X obj 407 374 loadbang;
#X msg 407 398 1;
#X obj 508 268 dkezringmodM~;
#X obj 500 406 dkezdelaylopM~ 5000;
#X obj 722 336 dkezdelaylopM~ 5000;
#X obj 453 902 dkezpanM~;
#X obj 683 903 dkezpanM~;
#N canvas 232 391 317 197 \$0-improv_loop_arrays 0;
#X obj 45 68 array define \$0-loop1 882000;
#X obj 38 114 array define \$0-loop2 882000;
#X obj 45 153 array define \$0-loop3 882000;
#X obj 38 29 array define \$0-loop0 882000;
#X restore 110 818 pd \$0-improv_loop_arrays;
#X obj 547 981 throw~ \$0-improv_procL;
#X obj 728 971 throw~ \$0-improv_procR;
#X obj 923 288 catch~ \$0-improv_procL;
#X obj 1104 278 catch~ \$0-improv_procR;
#X obj 1033 336 catch~ \$0-improv_loopL;
#X obj 1225 336 catch~ \$0-improv_loopR;
#X obj 959 429 dkvancomp~ 512;
#X obj 1122 430 dkvancomp~ 512;
#X obj 986 490 dkezvolS~;
#X msg 1290 433 factor_hi 10;
#X obj 1357 384 loadbang;
#X obj 979 571 throw~ dkimprovstation_voiceL;
#X obj 1186 564 throw~ dkimprovstation_voiceR;
#X obj 698 863 s~ \$0-improv_procSUM;
#X obj 718 501 dkezstutterM~ 5000;
#X obj 1047 624 dkezvuS~;
#X obj 103 35 dkezadc~ 2;
#X obj 500 541 dkezstutterM~ 10000;
#X obj 945 37 r dkimprovstation_1b;
#X obj 945 72 bng 45 250 50 0 empty empty sync 0 -7 0 15 -262144 -1
-1;
#X obj 231 106 r dkimprov_logidy;
#X obj 279 134 tgl 20 0 empty empty pedal_select 22 7 0 15 -262144
-1 -1 0 1;
#X obj 231 165 spigot 0;
#X obj 231 189 list split 1;
#N canvas 379 412 1351 903 dkimprov_drum_synths 0;
#X obj 87 335 pdksynth/dkhh3~;
#X obj 234 114 f 0;
#X obj 240 65 dkdrumtrig~;
#X obj 220 392 +~;
#X obj 231 585 *~;
#X obj 270 557 line~;
#X msg 307 512 \$1 0.5;
#X obj 234 138 pack f f;
#X obj 201 31 inlet~;
#X obj 282 31 inlet;
#X text 330 33 on;
#X obj 387 28 inlet;
#X text 435 33 select;
#X obj 387 52 t f f;
#N canvas 826 486 930 423 dkimprov_drum_flowerpot 0;
#X obj 187 274 dkringerpreset;
#X obj 172 323 dkringerbank~ 4;
#X obj 215 186 loadbang;
#X msg 213 216 flowerpot;
#X obj 295 213 dkvanssimp~ 5;
#X obj 300 181 t b f;
#X obj 290 125 == 1;
#X msg 290 149 on \$1;
#X obj 290 78 inlet;
#X text 350 88 select;
#X obj 187 87 inlet;
#X text 237 88 speed;
#X obj 170 358 outlet~;
#X obj 327 279 dkrange 0 1 600 700;
#X connect 0 1 1 2;
#X connect 0 2 1 3;
#X connect 0 3 1 4;
#X connect 1 0 12 0;
#X connect 2 0 3 0;
#X connect 3 0 0 0;
#X connect 4 0 1 0;
#X connect 5 0 4 0;
#X connect 5 1 13 0;
#X connect 6 0 7 0;
#X connect 7 0 1 5;
#X connect 8 0 6 0;
#X connect 10 0 5 0;
#X connect 13 0 1 1;
#X restore 311 325 pd dkimprov_drum_flowerpot;
#X obj 436 90 t f f;
#N canvas 588 664 930 423 dkimprov_drum_wineglass 0;
#X obj 187 274 dkringerpreset;
#X obj 215 186 loadbang;
#X obj 295 213 dkvanssimp~ 5;
#X obj 300 181 t b f;
#X msg 290 149 on \$1;
#X obj 290 78 inlet;
#X text 350 88 select;
#X obj 187 87 inlet;
#X text 237 88 speed;
#X obj 170 358 outlet~;
#X msg 213 216 wineglass;
#X obj 172 323 dkringerbank~ 5;
#X obj 290 125 == 2;
#X obj 327 279 dkrange 0 1 1000 1100;
#X connect 0 1 11 2;
#X connect 0 2 11 3;
#X connect 0 3 11 4;
#X connect 1 0 10 0;
#X connect 2 0 11 0;
#X connect 3 0 2 0;
#X connect 3 1 13 0;
#X connect 4 0 11 5;
#X connect 5 0 12 0;
#X connect 7 0 3 0;
#X connect 10 0 0 0;
#X connect 11 0 9 0;
#X connect 12 0 4 0;
#X connect 13 0 11 1;
#X restore 526 327 pd dkimprov_drum_wineglass;
#X obj 220 416 +~;
#X obj 231 609 outlet~;
#X msg 208 288 freq \$1;
#X obj 134 225 t b f;
#X obj 577 22 loadbang;
#X msg 577 46 thresh 2.5 7;
#X obj 87 359 *~ 5;
#X obj 591 255 t b f;
#X obj 778 314 pdksynth/dkbd1~;
#X obj 966 258 osc~;
#X obj 966 282 *~;
#X obj 984 147 t f b;
#X msg 1134 206 1 5 \, 0 500 5;
#X obj 1134 230 vline~;
#X obj 950 211 dkrange 0 1 1000 2000;
#X obj 208 264 dkrange 0 1 1200 1500;
#X obj 781 464 dkvanssimp~ 10;
#X obj 234 184 route 0 1 2 3 4 5, f 48;
#X connect 0 0 23 0;
#X connect 1 0 7 0;
#X connect 2 0 1 0;
#X connect 2 1 6 0;
#X connect 2 2 7 1;
#X connect 3 0 17 0;
#X connect 4 0 18 0;
#X connect 5 0 4 1;
#X connect 6 0 5 0;
#X connect 7 0 34 0;
#X connect 8 0 2 0;
#X connect 9 0 2 1;
#X connect 11 0 13 0;
#X connect 13 0 1 1;
#X connect 13 1 15 0;
#X connect 14 0 3 1;
#X connect 15 0 14 1;
#X connect 15 1 16 1;
#X connect 16 0 17 1;
#X connect 17 0 4 0;
#X connect 19 0 0 1;
#X connect 20 0 0 0;
#X connect 20 1 32 0;
#X connect 21 0 22 0;
#X connect 22 0 2 2;
#X connect 23 0 3 0;
#X connect 24 0 25 0;
#X connect 25 0 17 1;
#X connect 26 0 27 0;
#X connect 27 0 3 1;
#X connect 28 0 31 0;
#X connect 28 1 29 0;
#X connect 29 0 30 0;
#X connect 30 0 27 1;
#X connect 31 0 26 0;
#X connect 32 0 19 0;
#X connect 33 0 3 1;
#X connect 34 0 20 0;
#X connect 34 1 14 0;
#X connect 34 2 16 0;
#X connect 34 3 24 0;
#X connect 34 4 28 0;
#X connect 34 5 33 0;
#X restore 104 298 pd dkimprov_drum_synths;
#X obj 196 254 tgl 15 0 empty empty on 17 7 0 15 -262144 -1 -1 0 1
;
#X obj 276 229 loadbang;
#X msg 276 253 0;
#X obj 1168 183 loadbang;
#X msg 1168 207 1;
#X obj 318 288 hradio 15 1 0 8 empty empty empty 0 -8 0 10 -262144
-1 -1 0;
#N canvas 720 218 1671 1084 \$0-improv_loopstation 0;
#X obj 86 228 dkezdistortM~;
#X obj 87 283 dkezfreqshiftM~;
#X obj 87 328 dkezpshiftM~;
#X obj 87 454 dkezdelaylopM~ 5000;
#X obj 105 769 dkezvolM~;
#X obj 105 832 dkezpanM~;
#X obj 472 258 dkezfreqshiftM~;
#X obj 472 303 dkezpshiftM~;
#X obj 472 450 dkezdelaylopM~ 5000;
#X obj 485 712 dkezvolM~;
#X obj 490 778 dkezpanM~;
#X obj 850 251 dkezfreqshiftM~;
#X obj 850 296 dkezpshiftM~;
#X obj 850 443 dkezdelaylopM~ 5000;
#X obj 838 727 dkezvolM~;
#X obj 838 790 dkezpanM~;
#X obj 1221 232 dkezfreqshiftM~;
#X obj 1221 277 dkezpshiftM~;
#X obj 1221 424 dkezdelaylopM~ 5000;
#X obj 1223 718 dkezvolM~;
#X obj 1221 773 dkezpanM~;
#X obj 255 460 loadbang;
#X msg 255 484 1;
#X obj 1033 433 loadbang;
#X msg 1033 457 1;
#X obj 471 203 dkezdistortM~;
#X obj 849 196 dkezdistortM~;
#X obj 1220 177 dkezdistortM~;
#X obj 257 34 r dkimprovstation_1b;
#X obj 363 63 r dkimprov_dur;
#X msg 363 87 syncdur \$1;
#X obj 583 38 r dkimprovstation_1b;
#X obj 745 38 r dkimprov_dur;
#X msg 745 62 syncdur \$1;
#X obj 962 31 r dkimprovstation_1b;
#X obj 1124 31 r dkimprov_dur;
#X msg 1124 55 syncdur \$1;
#X obj 1347 18 r dkimprovstation_1b;
#X obj 1497 20 r dkimprov_dur;
#X msg 1495 37 syncdur \$1;
#X obj 278 344 r dkimprovstation_1b;
#X obj 278 379 bng 45 250 50 0 empty empty sync 0 -7 0 15 -262144 -1
-1;
#X obj 10 26 r dkimprov_logidy;
#X obj 96 59 tgl 20 0 empty empty pedal_select 22 7 0 15 -262144 -1
-1 0 1;
#X obj 10 85 spigot 0;
#X obj 10 109 list split 1;
#X obj 10 133 sel 0 1 2;
#X obj 24 172 tgl 15 0 empty empty empty 17 7 0 10 -262144 -1 -1 0
1;
#X msg 24 192 rec \$1;
#X obj 111 610 dkezstutterM~ 5000;
#X obj 111 655 dkezvcfM~ 0 5 5 1;
#X obj 488 603 dkezstutterM~ 5000;
#X obj 484 649 dkezvcfM~ 0 5 5 1;
#X obj 841 604 dkezstutterM~ 5000;
#X obj 841 649 dkezvcfM~ 0 5 5 1;
#X obj 1214 584 dkezstutterM~ 5000;
#X obj 1214 629 dkezvcfM~ 0 5 5 1;
#X obj 440 1021 throw~ \$0-improv_loopR;
#X obj 248 1021 throw~ \$0-improv_loopL;
#X obj 97 87 r~ \$0-improv_procSUM;
#X obj 89 120 dkezlooperM~ \$0-loop0 1 125;
#X obj 479 62 r~ \$0-improv_procSUM;
#X obj 471 95 dkezlooperM~ \$0-loop1 1 125;
#X obj 858 55 r~ \$0-improv_procSUM;
#X obj 850 88 dkezlooperM~ \$0-loop2 1 125;
#X obj 1230 28 r~ \$0-improv_procSUM;
#X obj 1231 65 dkezlooperM~ \$0-loop3 1 125;
#X connect 0 0 1 0;
#X connect 1 0 2 0;
#X connect 2 0 3 0;
#X connect 3 0 49 0;
#X connect 4 0 5 0;
#X connect 5 0 58 0;
#X connect 5 1 57 0;
#X connect 6 0 7 0;
#X connect 7 0 8 0;
#X connect 8 0 51 0;
#X connect 9 0 10 0;
#X connect 10 0 58 0;
#X connect 10 1 57 0;
#X connect 11 0 12 0;
#X connect 12 0 13 0;
#X connect 13 0 53 0;
#X connect 14 0 15 0;
#X connect 15 0 58 0;
#X connect 15 1 57 0;
#X connect 16 0 17 0;
#X connect 17 0 18 0;
#X connect 18 0 55 0;
#X connect 19 0 20 0;
#X connect 20 0 58 0;
#X connect 20 1 57 0;
#X connect 21 0 22 0;
#X connect 22 0 3 2;
#X connect 22 0 8 2;
#X connect 23 0 24 0;
#X connect 24 0 13 2;
#X connect 24 0 18 2;
#X connect 25 0 6 0;
#X connect 26 0 11 0;
#X connect 27 0 16 0;
#X connect 28 0 60 3;
#X connect 29 0 30 0;
#X connect 30 0 60 4;
#X connect 31 0 62 3;
#X connect 32 0 33 0;
#X connect 33 0 62 4;
#X connect 34 0 64 3;
#X connect 35 0 36 0;
#X connect 36 0 64 4;
#X connect 37 0 66 3;
#X connect 38 0 39 0;
#X connect 39 0 66 4;
#X connect 40 0 41 0;
#X connect 42 0 44 0;
#X connect 43 0 44 1;
#X connect 44 0 45 0;
#X connect 45 0 46 0;
#X connect 46 0 47 0;
#X connect 47 0 48 0;
#X connect 47 0 60 1;
#X connect 49 0 50 0;
#X connect 50 0 4 0;
#X connect 51 0 52 0;
#X connect 52 0 9 0;
#X connect 53 0 54 0;
#X connect 54 0 14 0;
#X connect 55 0 56 0;
#X connect 56 0 19 0;
#X connect 59 0 60 0;
#X connect 60 0 0 0;
#X connect 61 0 62 0;
#X connect 62 0 25 0;
#X connect 63 0 64 0;
#X connect 64 0 26 0;
#X connect 65 0 66 0;
#X connect 66 0 27 0;
#X restore 107 844 pd \$0-improv_loopstation;
#X obj 475 614 dkezvcfM~ 18000 5 5 1;
#X obj 715 601 dkezvcfM~ 18000 5 5 1;
#X connect 0 0 3 0;
#X connect 2 0 13 0;
#X connect 3 0 2 0;
#X connect 4 0 0 0;
#X connect 5 0 4 0;
#X connect 6 0 10 0;
#X connect 7 0 14 0;
#X connect 8 0 16 0;
#X connect 8 0 32 0;
#X connect 9 0 17 0;
#X connect 9 0 32 0;
#X connect 10 0 15 0;
#X connect 11 0 12 0;
#X connect 12 0 5 3;
#X connect 12 0 4 2;
#X connect 13 0 7 0;
#X connect 13 0 6 0;
#X connect 14 0 36 0;
#X connect 15 0 33 0;
#X connect 16 0 19 0;
#X connect 16 1 20 0;
#X connect 17 0 19 0;
#X connect 17 1 20 0;
#X connect 21 0 25 0;
#X connect 22 0 26 0;
#X connect 23 0 25 0;
#X connect 24 0 26 0;
#X connect 25 0 27 0;
#X connect 26 0 27 1;
#X connect 27 0 30 0;
#X connect 27 0 34 0;
#X connect 27 1 31 0;
#X connect 27 1 34 1;
#X connect 28 0 25 1;
#X connect 28 0 26 1;
#X connect 29 0 28 0;
#X connect 33 0 52 0;
#X connect 35 0 43 0;
#X connect 36 0 51 0;
#X connect 37 0 38 0;
#X connect 39 0 41 0;
#X connect 40 0 41 1;
#X connect 41 0 42 0;
#X connect 42 0 43 2;
#X connect 43 0 5 0;
#X connect 43 0 1 0;
#X connect 44 0 43 1;
#X connect 45 0 46 0;
#X connect 46 0 43 2;
#X connect 47 0 48 0;
#X connect 48 0 14 2;
#X connect 48 0 15 2;
#X connect 49 0 43 2;
#X connect 51 0 8 0;
#X connect 52 0 9 0;
