#N canvas 379 139 1342 857 12;
#X obj 164 485 catch~ dkimprovstation_voiceL;
#X obj 396 478 catch~ dkimprovstation_voiceR;
#X obj 180 674 dkvancomp~ 512;
#X obj 349 681 dkvancomp~ 512;
#X msg 521 655 factor_hi 10;
#X obj 588 606 loadbang;
#X obj 182 747 dkezdac~ 1 2;
#X obj 998 101 dkvmetrox dkimprovstation 500;
#X floatatom 1095 44 5 0 1e+20 0 bpm - -, f 5;
#X obj 1005 41 tgl 15 0 empty empty empty 17 7 0 10 -262144 -1 -1 0
1;
#X msg 1095 67 tempo \$1 permin;
#N canvas 978 534 450 300 \$0-improvstation_arrays 1;
#X obj 15 22 array define dkimprovstation_rec0 882000;
#X obj 12 50 array define dkimprovstation_rec1 882000;
#X restore 581 100 pd \$0-improvstation_arrays;
#X obj 233 554 *~ 0.5;
#X obj 319 556 *~ 0.5;
#X obj 233 578 +~;
#X obj 222 643 s~ \$0-dkimprovstation_voiceSUM;
#N canvas 828 406 537 203 \$0-improvstation_recwindow 0;
#X obj 34 19 r~ \$0-dkimprovstation_voiceSUM;
#X obj 284 24 r~ \$0-dkimprovstation_voiceSUM;
#X obj 40 63 dkezsndrecM~ dkimprovstation_rec0;
#X obj 290 68 dkezsndrecM~ dkimprovstation_rec1;
#X connect 0 0 2 0;
#X connect 1 0 3 0;
#X restore 581 128 pd \$0-improvstation_recwindow;
#X connect 0 0 2 0;
#X connect 0 0 12 0;
#X connect 1 0 3 0;
#X connect 1 0 13 0;
#X connect 2 0 6 0;
#X connect 3 0 6 1;
#X connect 4 0 2 1;
#X connect 4 0 3 1;
#X connect 5 0 4 0;
#X connect 8 0 10 0;
#X connect 9 0 7 0;
#X connect 10 0 7 1;
#X connect 12 0 14 0;
#X connect 13 0 14 1;
#X connect 14 0 15 0;
