#N canvas 379 139 1594 853 12;
#X obj 164 485 catch~ dkimprovstation_voiceL;
#X obj 396 478 catch~ dkimprovstation_voiceR;
#X obj 180 674 dkvancomp~ 512;
#X obj 349 681 dkvancomp~ 512;
#X msg 521 655 factor_hi 10;
#X obj 588 606 loadbang;
#X obj 182 747 dkezdac~ 1 2;
#X obj 861 196 dkvmetrox dkimprovstation 500;
#X floatatom 962 79 5 0 1e+20 0 bpm - -, f 5;
#X obj 870 30 tgl 15 0 empty empty empty 17 7 0 10 -262144 -1 -1 0
1;
#X msg 954 155 tempo \$1 permin;
#N canvas 978 534 450 300 \$0-improvstation_arrays 0;
#X obj 15 22 array define dkimprovstation_rec0 882000;
#X obj 12 50 array define dkimprovstation_rec1 882000;
#X restore 581 100 pd \$0-improvstation_arrays;
#X obj 233 554 *~ 0.5;
#X obj 319 556 *~ 0.5;
#X obj 233 578 +~;
#X obj 222 643 s~ \$0-dkimprovstation_voiceSUM;
#N canvas 828 406 537 203 \$0-improvstation_recwindow 0;
#X obj 34 19 r~ \$0-dkimprovstation_voiceSUM;
#X obj 284 24 r~ \$0-dkimprovstation_voiceSUM;
#X obj 40 63 dkezsndrecM~ dkimprovstation_rec0;
#X obj 290 68 dkezsndrecM~ dkimprovstation_rec1;
#X connect 0 0 2 0;
#X connect 1 0 3 0;
#X restore 581 128 pd \$0-improvstation_recwindow;
#X obj 867 238 bng 15 250 50 0 empty empty empty 17 7 0 10 -262144
-1 -1;
#X obj 962 102 t f f;
#X obj 901 238 dkbpmtoms;
#X floatatom 859 324 5 0 0 0 - - -, f 5;
#X obj 903 305 / 2;
#X floatatom 903 329 5 0 0 0 - - -, f 5;
#X obj 957 308 / 3;
#X floatatom 957 332 5 0 0 0 - - -, f 5;
#X obj 1005 315 / 4;
#X floatatom 1005 339 5 0 0 0 - - -, f 5;
#X obj 1062 309 / 5;
#X floatatom 1062 333 5 0 0 0 - - -, f 5;
#X obj 1113 314 / 6;
#X floatatom 1113 338 5 0 0 0 - - -, f 5;
#X obj 1153 316 / 7;
#X floatatom 1153 340 5 0 0 0 - - -, f 5;
#X obj 1235 323 / 8;
#X floatatom 1235 347 5 0 0 0 - - -, f 5;
#X obj 983 20 loadbang;
#X msg 983 44 120;
#X obj 871 270 t f f f f f f f f f, f 64;
#X obj 1314 312 v dkimprov_dur;
#X connect 0 0 2 0;
#X connect 0 0 12 0;
#X connect 1 0 3 0;
#X connect 1 0 13 0;
#X connect 2 0 6 0;
#X connect 3 0 6 1;
#X connect 4 0 2 1;
#X connect 4 0 3 1;
#X connect 5 0 4 0;
#X connect 7 0 17 0;
#X connect 8 0 18 0;
#X connect 9 0 7 0;
#X connect 10 0 7 1;
#X connect 12 0 14 0;
#X connect 13 0 14 1;
#X connect 14 0 15 0;
#X connect 18 0 10 0;
#X connect 18 1 19 0;
#X connect 19 0 37 0;
#X connect 21 0 22 0;
#X connect 23 0 24 0;
#X connect 25 0 26 0;
#X connect 27 0 28 0;
#X connect 29 0 30 0;
#X connect 31 0 32 0;
#X connect 33 0 34 0;
#X connect 35 0 36 0;
#X connect 36 0 8 0;
#X connect 37 0 20 0;
#X connect 37 1 21 0;
#X connect 37 2 23 0;
#X connect 37 3 25 0;
#X connect 37 4 27 0;
#X connect 37 5 29 0;
#X connect 37 6 31 0;
#X connect 37 7 33 0;
#X connect 37 8 38 0;
