#N canvas 555 134 1123 1034 12;
#X obj 221 967 throw~ dkimprovstation_voiceL;
#X obj 453 962 throw~ dkimprovstation_voiceR;
#X obj 273 875 dkezvolS~;
#X obj 205 71 dkvmetrox_rcv dkimprovstation;
#X obj 228 40 hradio 15 1 0 8 empty empty empty 0 -8 0 10 -262144 -1
-1 4;
#X obj 104 735 dkezvuM~;
#X obj 309 613 dkezdelaylopM~ 5000;
#X obj 561 492 loadbang;
#X msg 561 516 1;
#X obj 552 17 r dkimprovstation_1b;
#X obj 545 61 bng 45 250 50 0 empty empty sync 0 -7 0 15 -262144 -1
-1;
#X obj 482 147 dkfloatsync;
#X obj 500 115 tgl 15 0 empty empty on 17 7 0 12 -262144 -1 -1 0 1
;
#X obj 693 80 tgl 30 0 empty empty sync? 0 -7 0 15 -262144 -1 -1 0
1;
#X obj 610 102 bng 15 250 50 0 empty empty reset 17 7 0 12 -262144
-1 -1;
#X obj 599 147 dkbangsync;
#X obj 164 505 dkrgate 100;
#X obj 312 474 dkfdec;
#X obj 310 527 dkrdiv 1;
#X obj 310 551 i;
#X obj 306 580 dkmbang;
#X obj 312 498 t f f;
#X obj 151 465 t f f;
#X obj 309 748 dkezvcfM~ 18000 5 5 1;
#X obj 400 548 v dkimprov_bpm;
#X msg 400 572 tempo \$1 msec;
#X obj 435 507 loadbang;
#X obj 184 588 dkvanssimp~ 10;
#X msg 250 13 4;
#X obj 162 210 dkezseq64;
#X obj 195 113 dkezctr 64;
#X obj 120 17 loadbang;
#X connect 2 0 0 0;
#X connect 2 1 1 0;
#X connect 3 0 30 0;
#X connect 4 0 3 0;
#X connect 6 0 23 0;
#X connect 7 0 8 0;
#X connect 8 0 6 2;
#X connect 9 0 10 0;
#X connect 10 0 11 2;
#X connect 10 0 15 2;
#X connect 11 0 30 0;
#X connect 12 0 11 0;
#X connect 13 0 11 1;
#X connect 13 0 15 1;
#X connect 14 0 15 0;
#X connect 15 0 30 3;
#X connect 16 0 17 0;
#X connect 17 0 21 0;
#X connect 18 0 19 0;
#X connect 19 0 20 0;
#X connect 20 0 27 0;
#X connect 21 0 18 0;
#X connect 21 1 20 2;
#X connect 22 0 16 0;
#X connect 22 1 16 1;
#X connect 23 0 2 0;
#X connect 24 0 25 0;
#X connect 25 0 20 1;
#X connect 26 0 24 0;
#X connect 27 0 6 0;
#X connect 27 0 5 0;
#X connect 28 0 4 0;
#X connect 29 0 22 0;
#X connect 30 0 29 0;
#X connect 31 0 28 0;
