#N canvas 213 225 1123 1034 12;
#X obj 203 992 throw~ dkimprovstation_voiceL;
#X obj 435 987 throw~ dkimprovstation_voiceR;
#X obj 255 900 dkezvolS~;
#X obj 205 71 dkvmetrox_rcv dkimprovstation;
#X obj 228 40 hradio 15 1 0 8 empty empty empty 0 -8 0 10 -262144 -1
-1 4;
#X obj 113 684 dkezvuM~;
#X obj 296 655 dkezdelaylopM~ 5000;
#X obj 437 592 loadbang;
#X msg 437 616 1;
#X obj 552 17 r dkimprovstation_1b;
#X obj 545 61 bng 45 250 50 0 empty empty sync 0 -7 0 15 -262144 -1
-1;
#X obj 482 147 dkfloatsync;
#X obj 500 115 tgl 15 0 empty empty on 17 7 0 12 -262144 -1 -1 0 1
;
#X obj 693 80 tgl 30 0 empty empty sync? 0 -7 0 15 -262144 -1 -1 0
1;
#X obj 610 102 bng 15 250 50 0 empty empty reset 17 7 0 12 -262144
-1 -1;
#X obj 599 147 dkbangsync;
#X obj 150 461 dkezosc~ 0 50 1;
#X obj 296 790 dkezvcfM~ 18000 5 5 1;
#X obj 162 210 dkezseq64;
#X obj 195 113 dkezctr 64;
#X msg 121 32 4;
#X obj 98 7 loadbang;
#X connect 2 0 0 0;
#X connect 2 1 1 0;
#X connect 3 0 19 0;
#X connect 4 0 3 0;
#X connect 6 0 17 0;
#X connect 7 0 8 0;
#X connect 8 0 6 2;
#X connect 9 0 10 0;
#X connect 10 0 11 2;
#X connect 10 0 15 2;
#X connect 11 0 19 0;
#X connect 12 0 11 0;
#X connect 13 0 11 1;
#X connect 13 0 15 1;
#X connect 14 0 15 0;
#X connect 15 0 19 3;
#X connect 16 0 6 0;
#X connect 16 0 5 0;
#X connect 17 0 2 0;
#X connect 18 0 16 0;
#X connect 19 0 18 0;
#X connect 20 0 4 0;
#X connect 21 0 20 0;
