#N canvas 184 191 1652 1082 12;
#X obj 103 35 dkezadc~ 1;
#X obj 510 35 dkezdistortM~;
#X obj 346 27 dkezvuM~;
#X obj 509 136 dkezpshiftM~;
#X obj 510 80 dkezfreqshiftM~;
#X obj 90 204 dkezspectdelayM~ 1024 40000 1 1;
#X obj 88 116 dkezspectgateM~ 1024;
#X obj 726 40 dkeztrgrnstrM~;
#X obj 497 337 dkezbitcrushM~;
#X obj 430 672 dkezvolM~;
#X obj 682 729 dkezvolM~;
#X obj 721 231 dkezbitcrushM~;
#X obj 447 131 loadbang;
#X msg 447 155 1;
#X obj 508 268 dkezringmodM~;
#X obj 500 406 dkezdelaylopM~ 5000;
#X obj 706 469 dkezdelaylopM~ 5000;
#X obj 408 759 dkezpanM~;
#X obj 693 846 dkezpanM~;
#N canvas 232 391 317 197 \$0-improv_loop_arrays 0;
#X obj 38 29 array define \$0-loop0 882000;
#X obj 45 68 array define \$0-loop1 882000;
#X obj 38 114 array define \$0-loop2 882000;
#X obj 45 153 array define \$0-loop3 882000;
#X restore 129 621 pd \$0-improv_loop_arrays;
#X obj 482 965 throw~ \$0-improv_procL;
#X obj 663 955 throw~ \$0-improv_procR;
#X obj 923 288 catch~ \$0-improv_procL;
#X obj 1104 278 catch~ \$0-improv_procR;
#X obj 1033 336 catch~ \$0-improv_loopL;
#X obj 1225 336 catch~ \$0-improv_loopR;
#X obj 959 429 dkvancomp~ 512;
#X obj 1122 430 dkvancomp~ 512;
#X obj 986 490 dkezvolS~;
#X msg 1290 433 factor_hi 10;
#X obj 1357 384 loadbang;
#X obj 979 571 throw~ dkimprovstation_voiceL;
#X obj 1186 564 throw~ dkimprovstation_voiceR;
#X obj 708 806 s~ \$0-improv_procSUM;
#X obj 709 604 dkezstutterM~ 5000;
#X obj 500 541 dkezstutterM~ 5000;
#X obj 1047 624 dkezvuS~;
#X obj 857 494 loadbang;
#X msg 857 518 1;
#X obj 940 31 r dkimprovstation_1b;
#X obj 940 66 bng 45 250 50 0 empty empty sync 0 -7 0 15 -262144 -1
-1;
#X obj 731 327 dkezpshiftM~;
#X obj 1138 44 bng 20 250 50 0 empty empty LOOPSTATION 25 10 0 15 -262144
-1 -1;
#N canvas 720 218 1671 1084 \$0-improv_loopstation 0;
#X obj 86 228 dkezdistortM~;
#X obj 87 283 dkezfreqshiftM~;
#X obj 87 328 dkezpshiftM~;
#X obj 87 454 dkezdelaylopM~ 5000;
#X obj 105 769 dkezvolM~;
#X obj 105 832 dkezpanM~;
#X obj 472 258 dkezfreqshiftM~;
#X obj 472 303 dkezpshiftM~;
#X obj 472 450 dkezdelaylopM~ 5000;
#X obj 485 712 dkezvolM~;
#X obj 490 778 dkezpanM~;
#X obj 850 251 dkezfreqshiftM~;
#X obj 850 296 dkezpshiftM~;
#X obj 850 443 dkezdelaylopM~ 5000;
#X obj 838 727 dkezvolM~;
#X obj 838 790 dkezpanM~;
#X obj 1221 232 dkezfreqshiftM~;
#X obj 1221 277 dkezpshiftM~;
#X obj 1221 424 dkezdelaylopM~ 5000;
#X obj 1223 718 dkezvolM~;
#X obj 1221 773 dkezpanM~;
#X obj 255 460 loadbang;
#X msg 255 484 1;
#X obj 1033 433 loadbang;
#X msg 1033 457 1;
#X obj 471 203 dkezdistortM~;
#X obj 849 196 dkezdistortM~;
#X obj 1220 177 dkezdistortM~;
#X obj 257 34 r dkimprovstation_1b;
#X obj 363 63 r dkimprov_dur;
#X msg 363 87 syncdur \$1;
#X obj 583 38 r dkimprovstation_1b;
#X obj 745 38 r dkimprov_dur;
#X msg 745 62 syncdur \$1;
#X obj 962 31 r dkimprovstation_1b;
#X obj 1124 31 r dkimprov_dur;
#X msg 1124 55 syncdur \$1;
#X obj 1347 18 r dkimprovstation_1b;
#X obj 1497 20 r dkimprov_dur;
#X msg 1495 37 syncdur \$1;
#X obj 278 344 r dkimprovstation_1b;
#X obj 278 379 bng 45 250 50 0 empty empty sync 0 -7 0 15 -262144 -1
-1;
#X obj 10 26 r dkimprov_logidy;
#X obj 96 59 tgl 20 0 empty empty pedal_select 22 7 0 15 -262144 -1
-1 0 1;
#X obj 10 85 spigot 0;
#X obj 10 109 list split 1;
#X obj 10 133 sel 0 1 2;
#X obj 24 172 tgl 15 0 empty empty empty 17 7 0 10 -262144 -1 -1 0
1;
#X msg 24 192 rec \$1;
#X obj 111 610 dkezstutterM~ 5000;
#X obj 488 603 dkezstutterM~ 5000;
#X obj 841 604 dkezstutterM~ 5000;
#X obj 1214 584 dkezstutterM~ 5000;
#X obj 440 1021 throw~ \$0-improv_loopR;
#X obj 248 1021 throw~ \$0-improv_loopL;
#X obj 97 87 r~ \$0-improv_procSUM;
#X obj 89 120 dkezlooperM~ \$0-loop0 1 125;
#X obj 479 62 r~ \$0-improv_procSUM;
#X obj 471 95 dkezlooperM~ \$0-loop1 1 125;
#X obj 858 55 r~ \$0-improv_procSUM;
#X obj 850 88 dkezlooperM~ \$0-loop2 1 125;
#X obj 1230 28 r~ \$0-improv_procSUM;
#X obj 1231 65 dkezlooperM~ \$0-loop3 1 125;
#X obj 111 655 dkezvcfM~ 0 5 5 1;
#X obj 484 649 dkezvcfM~ 0 5 5 1;
#X obj 841 649 dkezvcfM~ 0 5 5 1;
#X obj 1214 629 dkezvcfM~ 0 5 5 1;
#X connect 0 0 1 0;
#X connect 1 0 2 0;
#X connect 2 0 3 0;
#X connect 3 0 49 0;
#X connect 4 0 5 0;
#X connect 5 0 54 0;
#X connect 5 1 53 0;
#X connect 6 0 7 0;
#X connect 7 0 8 0;
#X connect 8 0 50 0;
#X connect 9 0 10 0;
#X connect 10 0 54 0;
#X connect 10 1 53 0;
#X connect 11 0 12 0;
#X connect 12 0 13 0;
#X connect 13 0 51 0;
#X connect 14 0 15 0;
#X connect 15 0 54 0;
#X connect 15 1 53 0;
#X connect 16 0 17 0;
#X connect 17 0 18 0;
#X connect 18 0 52 0;
#X connect 19 0 20 0;
#X connect 20 0 54 0;
#X connect 20 1 53 0;
#X connect 21 0 22 0;
#X connect 22 0 3 2;
#X connect 22 0 8 2;
#X connect 23 0 24 0;
#X connect 24 0 13 2;
#X connect 24 0 18 2;
#X connect 25 0 6 0;
#X connect 26 0 11 0;
#X connect 27 0 16 0;
#X connect 28 0 56 3;
#X connect 29 0 30 0;
#X connect 30 0 56 4;
#X connect 31 0 58 3;
#X connect 32 0 33 0;
#X connect 33 0 58 4;
#X connect 34 0 60 3;
#X connect 35 0 36 0;
#X connect 36 0 60 4;
#X connect 37 0 62 3;
#X connect 38 0 39 0;
#X connect 39 0 62 4;
#X connect 40 0 41 0;
#X connect 42 0 44 0;
#X connect 43 0 44 1;
#X connect 44 0 45 0;
#X connect 45 0 46 0;
#X connect 46 0 47 0;
#X connect 47 0 48 0;
#X connect 47 0 56 1;
#X connect 49 0 63 0;
#X connect 50 0 64 0;
#X connect 51 0 65 0;
#X connect 52 0 66 0;
#X connect 55 0 56 0;
#X connect 56 0 0 0;
#X connect 57 0 58 0;
#X connect 58 0 25 0;
#X connect 59 0 60 0;
#X connect 60 0 26 0;
#X connect 61 0 62 0;
#X connect 62 0 27 0;
#X connect 63 0 4 0;
#X connect 64 0 9 0;
#X connect 65 0 14 0;
#X connect 66 0 19 0;
#X restore 134 762 pd \$0-improv_loopstation;
#X obj 459 597 dkezvcfM~ 18000 5 5 1;
#X obj 709 649 dkezvcfM~ 18000 5 5 1;
#X connect 0 0 2 0;
#X connect 0 0 6 0;
#X connect 1 0 4 0;
#X connect 3 0 14 0;
#X connect 4 0 3 0;
#X connect 5 0 1 0;
#X connect 6 0 5 0;
#X connect 7 0 11 0;
#X connect 8 0 15 0;
#X connect 9 0 17 0;
#X connect 9 0 33 0;
#X connect 10 0 18 0;
#X connect 10 0 33 0;
#X connect 11 0 41 0;
#X connect 12 0 13 0;
#X connect 13 0 6 3;
#X connect 13 0 5 2;
#X connect 14 0 8 0;
#X connect 14 0 7 0;
#X connect 15 0 35 0;
#X connect 16 0 34 0;
#X connect 17 0 20 0;
#X connect 17 1 21 0;
#X connect 18 0 20 0;
#X connect 18 1 21 0;
#X connect 22 0 26 0;
#X connect 23 0 27 0;
#X connect 24 0 26 0;
#X connect 25 0 27 0;
#X connect 26 0 28 0;
#X connect 27 0 28 1;
#X connect 28 0 31 0;
#X connect 28 0 36 0;
#X connect 28 1 32 0;
#X connect 28 1 36 1;
#X connect 29 0 26 1;
#X connect 29 0 27 1;
#X connect 30 0 29 0;
#X connect 34 0 45 0;
#X connect 35 0 44 0;
#X connect 37 0 38 0;
#X connect 38 0 16 2;
#X connect 38 0 15 2;
#X connect 38 0 14 3;
#X connect 39 0 40 0;
#X connect 41 0 16 0;
#X connect 44 0 9 0;
#X connect 45 0 10 0;
