#N canvas 482 170 1067 826 12;
#X obj 76 176 r \$2-rate;
#X obj 233 164 r \$2-offset;
#X obj 145 243 f;
#X obj 44 118 t f f, f 6;
#X obj 138 206 sel 1;
#X obj 37 47 r \$2-key;
#X obj 37 80 route;
#X obj 181 40 loadbang;
#X obj 181 64 f \$1;
#X obj 181 88 + 1;
#X obj 45 291 dksndtrig2~ \$2-snd\$1 1 1 0;
#X obj 448 77 array define \$2-snd\$1;
#X obj 34 482 throw~ \$2-improv_procM;
#X connect 0 0 10 1;
#X connect 1 0 2 1;
#X connect 2 0 10 2;
#X connect 3 0 10 0;
#X connect 3 1 4 0;
#X connect 4 0 2 0;
#X connect 5 0 6 0;
#X connect 6 0 3 0;
#X connect 7 0 8 0;
#X connect 8 0 9 0;
#X connect 9 0 6 1;
#X connect 10 0 12 0;
